<?xml version="1.0" encoding="UTF-8" standalone="no"?><svg xmlns="http://www.w3.org/2000/svg" xmlns:xlink="http://www.w3.org/1999/xlink" contentScriptType="application/ecmascript" contentStyleType="text/css" height="832px" preserveAspectRatio="none" style="width:950px;height:832px;" version="1.1" viewBox="0 0 950 832" width="950px" zoomAndPan="magnify"><defs><filter height="300%" id="fuauvrcfml2yf" width="300%" x="-1" y="-1"><feGaussianBlur result="blurOut" stdDeviation="2.0"/><feColorMatrix in="blurOut" result="blurOut2" type="matrix" values="0 0 0 0 0 0 0 0 0 0 0 0 0 0 0 0 0 0 .4 0"/><feOffset dx="4.0" dy="4.0" in="blurOut2" result="blurOut3"/><feBlend in="SourceGraphic" in2="blurOut3" mode="normal"/></filter></defs><g><!--MD5=[5d4cd377749310b66bf14896f5cd8d9b]
cluster model--><polygon fill="#FFFFFF" filter="url(#fuauvrcfml2yf)" points="22,24.5,76,24.5,83,46.7969,928,46.7969,928,820,22,820,22,24.5" style="stroke: #000000; stroke-width: 1.5;"/><line style="stroke: #000000; stroke-width: 1.5;" x1="22" x2="83" y1="46.7969" y2="46.7969"/><text fill="#000000" font-family="sans-serif" font-size="14" font-weight="bold" lengthAdjust="spacingAndGlyphs" textLength="48" x="26" y="39.4951">model</text><!--MD5=[8852d4979f829c20a89b8fe64f20c857]
cluster communication--><polygon fill="#FFFFFF" filter="url(#fuauvrcfml2yf)" points="548,67.5,673,67.5,680,89.7969,904,89.7969,904,607,548,607,548,67.5" style="stroke: #000000; stroke-width: 1.5;"/><line style="stroke: #000000; stroke-width: 1.5;" x1="548" x2="680" y1="89.7969" y2="89.7969"/><text fill="#000000" font-family="sans-serif" font-size="14" font-weight="bold" lengthAdjust="spacingAndGlyphs" textLength="119" x="552" y="82.4951">communication</text><!--MD5=[b3ff875478fad275bd5f47ddbdd021c2]
class Tracker--><rect fill="#FEFECE" filter="url(#fuauvrcfml2yf)" height="99.2188" id="Tracker" style="stroke: #A80036; stroke-width: 1.5;" width="193" x="329.5" y="289"/><ellipse cx="398.25" cy="305" fill="#ADD1B2" rx="11" ry="11" style="stroke: #A80036; stroke-width: 1.0;"/><path d="M401.2188,310.6406 Q400.6406,310.9375 400,311.0859 Q399.3594,311.2344 398.6563,311.2344 Q396.1563,311.2344 394.8359,309.5859 Q393.5156,307.9375 393.5156,304.8125 Q393.5156,301.6875 394.8359,300.0313 Q396.1563,298.375 398.6563,298.375 Q399.3594,298.375 400.0078,298.5313 Q400.6563,298.6875 401.2188,298.9844 L401.2188,301.7031 Q400.5938,301.125 400,300.8516 Q399.4063,300.5781 398.7813,300.5781 Q397.4375,300.5781 396.75,301.6484 Q396.0625,302.7188 396.0625,304.8125 Q396.0625,306.9063 396.75,307.9766 Q397.4375,309.0469 398.7813,309.0469 Q399.4063,309.0469 400,308.7734 Q400.5938,308.5 401.2188,307.9219 L401.2188,310.6406 Z "/><text fill="#000000" font-family="sans-serif" font-size="12" lengthAdjust="spacingAndGlyphs" textLength="47" x="418.75" y="309.1543">Tracker</text><line style="stroke: #A80036; stroke-width: 1.5;" x1="330.5" x2="521.5" y1="321" y2="321"/><text fill="#000000" font-family="sans-serif" font-size="11" lengthAdjust="spacingAndGlyphs" textLength="51" x="335.5" y="335.2104">UInt16 ID</text><text fill="#000000" font-family="sans-serif" font-size="11" lengthAdjust="spacingAndGlyphs" textLength="68" x="335.5" y="348.0151">String Label</text><text fill="#000000" font-family="sans-serif" font-size="11" lengthAdjust="spacingAndGlyphs" textLength="141" x="335.5" y="360.8198">Time LastPoll &lt;no cbor&gt;</text><text fill="#000000" font-family="sans-serif" font-size="11" lengthAdjust="spacingAndGlyphs" textLength="181" x="335.5" y="373.6245">Time LastSleepTime &lt;no cbor&gt;</text><line style="stroke: #A80036; stroke-width: 1.5;" x1="330.5" x2="521.5" y1="380.2188" y2="380.2188"/><!--MD5=[46cf5e44101693e1de434cc3ca8a61a3]
class TrackerStatus--><rect fill="#FEFECE" filter="url(#fuauvrcfml2yf)" height="78.4141" id="TrackerStatus" style="stroke: #A80036; stroke-width: 1.5;" width="120" x="394" y="94"/><ellipse cx="409" cy="110" fill="#EB937F" rx="11" ry="11" style="stroke: #A80036; stroke-width: 1.0;"/><path d="M413.1094,116 L405.3906,116 L405.3906,103.6094 L413.1094,103.6094 L413.1094,105.7656 L407.8438,105.7656 L407.8438,108.4375 L412.6094,108.4375 L412.6094,110.5938 L407.8438,110.5938 L407.8438,113.8438 L413.1094,113.8438 L413.1094,116 Z "/><text fill="#000000" font-family="sans-serif" font-size="12" lengthAdjust="spacingAndGlyphs" textLength="88" x="423" y="114.1543">TrackerStatus</text><line style="stroke: #A80036; stroke-width: 1.5;" x1="395" x2="513" y1="126" y2="126"/><text fill="#000000" font-family="sans-serif" font-size="11" lengthAdjust="spacingAndGlyphs" textLength="44" x="400" y="140.2104">Idle = 1</text><text fill="#000000" font-family="sans-serif" font-size="11" lengthAdjust="spacingAndGlyphs" textLength="73" x="400" y="153.0151">Learning = 2</text><text fill="#000000" font-family="sans-serif" font-size="11" lengthAdjust="spacingAndGlyphs" textLength="72" x="400" y="165.8198">Tracking = 3</text><!--MD5=[521817ab83e81da341a3f4b5e91bae41]
class Command--><rect fill="#FEFECE" filter="url(#fuauvrcfml2yf)" height="86.4141" id="Command" style="stroke: #A80036; stroke-width: 1.5;" width="133" x="359.5" y="505"/><ellipse cx="392.05" cy="521" fill="#ADD1B2" rx="11" ry="11" style="stroke: #A80036; stroke-width: 1.0;"/><path d="M395.0188,526.6406 Q394.4406,526.9375 393.8,527.0859 Q393.1594,527.2344 392.4563,527.2344 Q389.9563,527.2344 388.6359,525.5859 Q387.3156,523.9375 387.3156,520.8125 Q387.3156,517.6875 388.6359,516.0313 Q389.9563,514.375 392.4563,514.375 Q393.1594,514.375 393.8078,514.5313 Q394.4563,514.6875 395.0188,514.9844 L395.0188,517.7031 Q394.3938,517.125 393.8,516.8516 Q393.2063,516.5781 392.5813,516.5781 Q391.2375,516.5781 390.55,517.6484 Q389.8625,518.7188 389.8625,520.8125 Q389.8625,522.9063 390.55,523.9766 Q391.2375,525.0469 392.5813,525.0469 Q393.2063,525.0469 393.8,524.7734 Q394.3938,524.5 395.0188,523.9219 L395.0188,526.6406 Z "/><text fill="#000000" font-family="sans-serif" font-size="12" lengthAdjust="spacingAndGlyphs" textLength="62" x="409.95" y="525.1543">Command</text><line style="stroke: #A80036; stroke-width: 1.5;" x1="360.5" x2="491.5" y1="537" y2="537"/><text fill="#000000" font-family="sans-serif" font-size="11" lengthAdjust="spacingAndGlyphs" textLength="51" x="365.5" y="551.2104">UInt16 ID</text><text fill="#000000" font-family="sans-serif" font-size="11" lengthAdjust="spacingAndGlyphs" textLength="121" x="365.5" y="564.0151">UInt16 SleepTimeSec</text><text fill="#000000" font-family="sans-serif" font-size="11" lengthAdjust="spacingAndGlyphs" textLength="88" x="365.5" y="576.8198">Time CreatedAt</text><line style="stroke: #A80036; stroke-width: 1.5;" x1="360.5" x2="491.5" y1="583.4141" y2="583.4141"/><!--MD5=[64ad5f0319badfc6629542683b018b66]
class CommandType--><rect fill="#FEFECE" filter="url(#fuauvrcfml2yf)" height="78.4141" id="CommandType" style="stroke: #A80036; stroke-width: 1.5;" width="178" x="337" y="709"/><ellipse cx="376.75" cy="725" fill="#EB937F" rx="11" ry="11" style="stroke: #A80036; stroke-width: 1.0;"/><path d="M380.8594,731 L373.1406,731 L373.1406,718.6094 L380.8594,718.6094 L380.8594,720.7656 L375.5938,720.7656 L375.5938,723.4375 L380.3594,723.4375 L380.3594,725.5938 L375.5938,725.5938 L375.5938,728.8438 L380.8594,728.8438 L380.8594,731 Z "/><text fill="#000000" font-family="sans-serif" font-size="12" lengthAdjust="spacingAndGlyphs" textLength="91" x="396.25" y="729.1543">CommandType</text><line style="stroke: #A80036; stroke-width: 1.5;" x1="338" x2="514" y1="741" y2="741"/><text fill="#000000" font-family="sans-serif" font-size="11" lengthAdjust="spacingAndGlyphs" textLength="166" x="343" y="755.2104">SendTrackingInformation = 0</text><text fill="#000000" font-family="sans-serif" font-size="11" lengthAdjust="spacingAndGlyphs" textLength="106" x="343" y="768.0151">SignalLocation = 1</text><text fill="#000000" font-family="sans-serif" font-size="11" lengthAdjust="spacingAndGlyphs" textLength="56" x="343" y="780.8198">Sleep = 2</text><!--MD5=[d218c48b946d362ff1ecd879cabebcad]
class Room--><rect fill="#FEFECE" filter="url(#fuauvrcfml2yf)" height="73.6094" id="Room" style="stroke: #A80036; stroke-width: 1.5;" width="80" x="103" y="511"/><ellipse cx="123.85" cy="527" fill="#ADD1B2" rx="11" ry="11" style="stroke: #A80036; stroke-width: 1.0;"/><path d="M126.8188,532.6406 Q126.2406,532.9375 125.6,533.0859 Q124.9594,533.2344 124.2563,533.2344 Q121.7563,533.2344 120.4359,531.5859 Q119.1156,529.9375 119.1156,526.8125 Q119.1156,523.6875 120.4359,522.0313 Q121.7563,520.375 124.2563,520.375 Q124.9594,520.375 125.6078,520.5313 Q126.2563,520.6875 126.8188,520.9844 L126.8188,523.7031 Q126.1938,523.125 125.6,522.8516 Q125.0063,522.5781 124.3813,522.5781 Q123.0375,522.5781 122.35,523.6484 Q121.6625,524.7188 121.6625,526.8125 Q121.6625,528.9063 122.35,529.9766 Q123.0375,531.0469 124.3813,531.0469 Q125.0063,531.0469 125.6,530.7734 Q126.1938,530.5 126.8188,529.9219 L126.8188,532.6406 Z "/><text fill="#000000" font-family="sans-serif" font-size="12" lengthAdjust="spacingAndGlyphs" textLength="35" x="139.15" y="531.1543">Room</text><line style="stroke: #A80036; stroke-width: 1.5;" x1="104" x2="182" y1="543" y2="543"/><text fill="#000000" font-family="sans-serif" font-size="11" lengthAdjust="spacingAndGlyphs" textLength="51" x="109" y="557.2104">UInt16 ID</text><text fill="#000000" font-family="sans-serif" font-size="11" lengthAdjust="spacingAndGlyphs" textLength="68" x="109" y="570.0151">String Label</text><line style="stroke: #A80036; stroke-width: 1.5;" x1="104" x2="182" y1="576.6094" y2="576.6094"/><!--MD5=[2b26ef4097a9f8e875c661187036ebae]
class BSSIDTrackingData--><rect fill="#FEFECE" filter="url(#fuauvrcfml2yf)" height="112.0234" id="BSSIDTrackingData" style="stroke: #A80036; stroke-width: 1.5;" width="151" x="67.5" y="692"/><ellipse cx="82.5" cy="708" fill="#ADD1B2" rx="11" ry="11" style="stroke: #A80036; stroke-width: 1.0;"/><path d="M85.4688,713.6406 Q84.8906,713.9375 84.25,714.0859 Q83.6094,714.2344 82.9063,714.2344 Q80.4063,714.2344 79.0859,712.5859 Q77.7656,710.9375 77.7656,707.8125 Q77.7656,704.6875 79.0859,703.0313 Q80.4063,701.375 82.9063,701.375 Q83.6094,701.375 84.2578,701.5313 Q84.9063,701.6875 85.4688,701.9844 L85.4688,704.7031 Q84.8438,704.125 84.25,703.8516 Q83.6563,703.5781 83.0313,703.5781 Q81.6875,703.5781 81,704.6484 Q80.3125,705.7188 80.3125,707.8125 Q80.3125,709.9063 81,710.9766 Q81.6875,712.0469 83.0313,712.0469 Q83.6563,712.0469 84.25,711.7734 Q84.8438,711.5 85.4688,710.9219 L85.4688,713.6406 Z "/><text fill="#000000" font-family="sans-serif" font-size="12" lengthAdjust="spacingAndGlyphs" textLength="119" x="96.5" y="712.1543">BSSIDTrackingData</text><line style="stroke: #A80036; stroke-width: 1.5;" x1="68.5" x2="217.5" y1="724" y2="724"/><text fill="#000000" font-family="sans-serif" font-size="11" lengthAdjust="spacingAndGlyphs" textLength="73" x="73.5" y="738.2104">String BSSID</text><text fill="#000000" font-family="sans-serif" font-size="11" lengthAdjust="spacingAndGlyphs" textLength="69" x="73.5" y="751.0151">Int Minimum</text><text fill="#000000" font-family="sans-serif" font-size="11" lengthAdjust="spacingAndGlyphs" textLength="72" x="73.5" y="763.8198">Int Maximum</text><text fill="#000000" font-family="sans-serif" font-size="11" lengthAdjust="spacingAndGlyphs" textLength="58" x="73.5" y="776.6245">Int Median</text><text fill="#000000" font-family="sans-serif" font-size="11" lengthAdjust="spacingAndGlyphs" textLength="77" x="73.5" y="789.4292">Float Average</text><line style="stroke: #A80036; stroke-width: 1.5;" x1="68.5" x2="217.5" y1="796.0234" y2="796.0234"/><!--MD5=[29607c184b58cc12f86f8e7971e51efd]
class Workflow--><rect fill="#FEFECE" filter="url(#fuauvrcfml2yf)" height="73.6094" id="Workflow" style="stroke: #A80036; stroke-width: 1.5;" width="125" x="218.5" y="96"/><ellipse cx="250.6" cy="112" fill="#ADD1B2" rx="11" ry="11" style="stroke: #A80036; stroke-width: 1.0;"/><path d="M253.5688,117.6406 Q252.9906,117.9375 252.35,118.0859 Q251.7094,118.2344 251.0063,118.2344 Q248.5063,118.2344 247.1859,116.5859 Q245.8656,114.9375 245.8656,111.8125 Q245.8656,108.6875 247.1859,107.0313 Q248.5063,105.375 251.0063,105.375 Q251.7094,105.375 252.3578,105.5313 Q253.0063,105.6875 253.5688,105.9844 L253.5688,108.7031 Q252.9438,108.125 252.35,107.8516 Q251.7563,107.5781 251.1313,107.5781 Q249.7875,107.5781 249.1,108.6484 Q248.4125,109.7188 248.4125,111.8125 Q248.4125,113.9063 249.1,114.9766 Q249.7875,116.0469 251.1313,116.0469 Q251.7563,116.0469 252.35,115.7734 Q252.9438,115.5 253.5688,114.9219 L253.5688,117.6406 Z "/><text fill="#000000" font-family="sans-serif" font-size="12" lengthAdjust="spacingAndGlyphs" textLength="55" x="268.4" y="116.1543">Workflow</text><line style="stroke: #A80036; stroke-width: 1.5;" x1="219.5" x2="342.5" y1="128" y2="128"/><text fill="#000000" font-family="sans-serif" font-size="11" lengthAdjust="spacingAndGlyphs" textLength="68" x="224.5" y="142.2104">String Label</text><text fill="#000000" font-family="sans-serif" font-size="11" lengthAdjust="spacingAndGlyphs" textLength="113" x="224.5" y="155.0151">Boolean IsTemplate</text><line style="stroke: #A80036; stroke-width: 1.5;" x1="219.5" x2="342.5" y1="161.6094" y2="161.6094"/><!--MD5=[5a2ba6e4c7f78036fecb159f353da9e9]
class Step--><rect fill="#FEFECE" filter="url(#fuauvrcfml2yf)" height="86.4141" id="Step" style="stroke: #A80036; stroke-width: 1.5;" width="121" x="101.5" y="295.5"/><ellipse cx="143.5" cy="311.5" fill="#ADD1B2" rx="11" ry="11" style="stroke: #A80036; stroke-width: 1.0;"/><path d="M146.4688,317.1406 Q145.8906,317.4375 145.25,317.5859 Q144.6094,317.7344 143.9063,317.7344 Q141.4063,317.7344 140.0859,316.0859 Q138.7656,314.4375 138.7656,311.3125 Q138.7656,308.1875 140.0859,306.5313 Q141.4063,304.875 143.9063,304.875 Q144.6094,304.875 145.2578,305.0313 Q145.9063,305.1875 146.4688,305.4844 L146.4688,308.2031 Q145.8438,307.625 145.25,307.3516 Q144.6563,307.0781 144.0313,307.0781 Q142.6875,307.0781 142,308.1484 Q141.3125,309.2188 141.3125,311.3125 Q141.3125,313.4063 142,314.4766 Q142.6875,315.5469 144.0313,315.5469 Q144.6563,315.5469 145.25,315.2734 Q145.8438,315 146.4688,314.4219 L146.4688,317.1406 Z "/><text fill="#000000" font-family="sans-serif" font-size="12" lengthAdjust="spacingAndGlyphs" textLength="29" x="163.5" y="315.6543">Step</text><line style="stroke: #A80036; stroke-width: 1.5;" x1="102.5" x2="221.5" y1="327.5" y2="327.5"/><text fill="#000000" font-family="sans-serif" font-size="11" lengthAdjust="spacingAndGlyphs" textLength="68" x="107.5" y="341.7104">String Label</text><text fill="#000000" font-family="sans-serif" font-size="11" lengthAdjust="spacingAndGlyphs" textLength="90" x="107.5" y="354.5151">Time StartedOn</text><text fill="#000000" font-family="sans-serif" font-size="11" lengthAdjust="spacingAndGlyphs" textLength="109" x="107.5" y="367.3198">Time CompletedOn</text><line style="stroke: #A80036; stroke-width: 1.5;" x1="102.5" x2="221.5" y1="373.9141" y2="373.9141"/><!--MD5=[00831ed972341db60b690cfa74dad093]
entity ##304--><!--MD5=[cb4359e205dc4b2c5e28a2e805b21089]
entity ##308--><!--MD5=[c020865b45020b39c5a8e96f399fe927]
entity ##312--><!--MD5=[38779eaf1f36d42563218d077fa59877]
class TrackerResponse--><rect fill="#FEFECE" filter="url(#fuauvrcfml2yf)" height="60.8047" id="TrackerResponse" style="stroke: #A80036; stroke-width: 1.5;" width="148" x="740" y="102.5"/><ellipse cx="758.15" cy="118.5" fill="#ADD1B2" rx="11" ry="11" style="stroke: #A80036; stroke-width: 1.0;"/><path d="M761.1188,124.1406 Q760.5406,124.4375 759.9,124.5859 Q759.2594,124.7344 758.5563,124.7344 Q756.0563,124.7344 754.7359,123.0859 Q753.4156,121.4375 753.4156,118.3125 Q753.4156,115.1875 754.7359,113.5313 Q756.0563,111.875 758.5563,111.875 Q759.2594,111.875 759.9078,112.0313 Q760.5563,112.1875 761.1188,112.4844 L761.1188,115.2031 Q760.4938,114.625 759.9,114.3516 Q759.3063,114.0781 758.6813,114.0781 Q757.3375,114.0781 756.65,115.1484 Q755.9625,116.2188 755.9625,118.3125 Q755.9625,120.4063 756.65,121.4766 Q757.3375,122.5469 758.6813,122.5469 Q759.3063,122.5469 759.9,122.2734 Q760.4938,122 761.1188,121.4219 L761.1188,124.1406 Z "/><text fill="#000000" font-family="sans-serif" font-size="12" lengthAdjust="spacingAndGlyphs" textLength="109" x="772.85" y="122.6543">TrackerResponse</text><line style="stroke: #A80036; stroke-width: 1.5;" x1="741" x2="887" y1="134.5" y2="134.5"/><text fill="#000000" font-family="sans-serif" font-size="11" lengthAdjust="spacingAndGlyphs" textLength="136" x="746" y="148.7104">Float BatteryPercentage</text><line style="stroke: #A80036; stroke-width: 1.5;" x1="741" x2="887" y1="155.3047" y2="155.3047"/><!--MD5=[e8f59f8f3251bf3d432a9f687c7f41d6]
class TrackingInformationResponse--><rect fill="#FEFECE" filter="url(#fuauvrcfml2yf)" height="48" id="TrackingInformationResponse" style="stroke: #A80036; stroke-width: 1.5;" width="218" x="606" y="314.5"/><ellipse cx="621" cy="330.5" fill="#ADD1B2" rx="11" ry="11" style="stroke: #A80036; stroke-width: 1.0;"/><path d="M623.9688,336.1406 Q623.3906,336.4375 622.75,336.5859 Q622.1094,336.7344 621.4063,336.7344 Q618.9063,336.7344 617.5859,335.0859 Q616.2656,333.4375 616.2656,330.3125 Q616.2656,327.1875 617.5859,325.5313 Q618.9063,323.875 621.4063,323.875 Q622.1094,323.875 622.7578,324.0313 Q623.4063,324.1875 623.9688,324.4844 L623.9688,327.2031 Q623.3438,326.625 622.75,326.3516 Q622.1563,326.0781 621.5313,326.0781 Q620.1875,326.0781 619.5,327.1484 Q618.8125,328.2188 618.8125,330.3125 Q618.8125,332.4063 619.5,333.4766 Q620.1875,334.5469 621.5313,334.5469 Q622.1563,334.5469 622.75,334.2734 Q623.3438,334 623.9688,333.4219 L623.9688,336.1406 Z "/><text fill="#000000" font-family="sans-serif" font-size="12" lengthAdjust="spacingAndGlyphs" textLength="186" x="635" y="334.6543">TrackingInformationResponse</text><line style="stroke: #A80036; stroke-width: 1.5;" x1="607" x2="823" y1="346.5" y2="346.5"/><line style="stroke: #A80036; stroke-width: 1.5;" x1="607" x2="823" y1="354.5" y2="354.5"/><!--MD5=[b25bbcd64bdd811ded8b77e4e8328db5]
class ScanResult--><rect fill="#FEFECE" filter="url(#fuauvrcfml2yf)" height="86.4141" id="ScanResult" style="stroke: #A80036; stroke-width: 1.5;" width="102" x="581" y="505"/><ellipse cx="596" cy="521" fill="#ADD1B2" rx="11" ry="11" style="stroke: #A80036; stroke-width: 1.0;"/><path d="M598.9688,526.6406 Q598.3906,526.9375 597.75,527.0859 Q597.1094,527.2344 596.4063,527.2344 Q593.9063,527.2344 592.5859,525.5859 Q591.2656,523.9375 591.2656,520.8125 Q591.2656,517.6875 592.5859,516.0313 Q593.9063,514.375 596.4063,514.375 Q597.1094,514.375 597.7578,514.5313 Q598.4063,514.6875 598.9688,514.9844 L598.9688,517.7031 Q598.3438,517.125 597.75,516.8516 Q597.1563,516.5781 596.5313,516.5781 Q595.1875,516.5781 594.5,517.6484 Q593.8125,518.7188 593.8125,520.8125 Q593.8125,522.9063 594.5,523.9766 Q595.1875,525.0469 596.5313,525.0469 Q597.1563,525.0469 597.75,524.7734 Q598.3438,524.5 598.9688,523.9219 L598.9688,526.6406 Z "/><text fill="#000000" font-family="sans-serif" font-size="12" lengthAdjust="spacingAndGlyphs" textLength="70" x="610" y="525.1543">ScanResult</text><line style="stroke: #A80036; stroke-width: 1.5;" x1="582" x2="682" y1="537" y2="537"/><text fill="#000000" font-family="sans-serif" font-size="11" lengthAdjust="spacingAndGlyphs" textLength="65" x="587" y="551.2104">String SSID</text><text fill="#000000" font-family="sans-serif" font-size="11" lengthAdjust="spacingAndGlyphs" textLength="73" x="587" y="564.0151">String BSSID</text><text fill="#000000" font-family="sans-serif" font-size="11" lengthAdjust="spacingAndGlyphs" textLength="66" x="587" y="576.8198">Int32 RSSID</text><line style="stroke: #A80036; stroke-width: 1.5;" x1="582" x2="682" y1="583.4141" y2="583.4141"/><!--MD5=[d70279aee16cb60954d73d22597b95b5]
class ErrorResponse--><rect fill="#FEFECE" filter="url(#fuauvrcfml2yf)" height="60.8047" id="ErrorResponse" style="stroke: #A80036; stroke-width: 1.5;" width="125" x="564.5" y="102.5"/><ellipse cx="579.5" cy="118.5" fill="#ADD1B2" rx="11" ry="11" style="stroke: #A80036; stroke-width: 1.0;"/><path d="M582.4688,124.1406 Q581.8906,124.4375 581.25,124.5859 Q580.6094,124.7344 579.9063,124.7344 Q577.4063,124.7344 576.0859,123.0859 Q574.7656,121.4375 574.7656,118.3125 Q574.7656,115.1875 576.0859,113.5313 Q577.4063,111.875 579.9063,111.875 Q580.6094,111.875 581.2578,112.0313 Q581.9063,112.1875 582.4688,112.4844 L582.4688,115.2031 Q581.8438,114.625 581.25,114.3516 Q580.6563,114.0781 580.0313,114.0781 Q578.6875,114.0781 578,115.1484 Q577.3125,116.2188 577.3125,118.3125 Q577.3125,120.4063 578,121.4766 Q578.6875,122.5469 580.0313,122.5469 Q580.6563,122.5469 581.25,122.2734 Q581.8438,122 582.4688,121.4219 L582.4688,124.1406 Z "/><text fill="#000000" font-family="sans-serif" font-size="12" lengthAdjust="spacingAndGlyphs" textLength="93" x="593.5" y="122.6543">ErrorResponse</text><line style="stroke: #A80036; stroke-width: 1.5;" x1="565.5" x2="688.5" y1="134.5" y2="134.5"/><text fill="#000000" font-family="sans-serif" font-size="11" lengthAdjust="spacingAndGlyphs" textLength="67" x="570.5" y="148.7104">String Error</text><line style="stroke: #A80036; stroke-width: 1.5;" x1="565.5" x2="688.5" y1="155.3047" y2="155.3047"/><!--MD5=[87c392ebf44f4fbabc35b16f70eede5b]
link TrackerStatus to Tracker--><path d="M448.733,172.277 C444.187,205.32 437.594,253.234 432.678,288.965 " fill="none" id="TrackerStatus-Tracker" style="stroke: #A80036; stroke-width: 1.0;"/><!--MD5=[37a8fa77bc8482f8c1d19019d53a6db0]
link Tracker to Room--><path d="M359.649,388.15 C304.92,428.278 229.06,483.899 183.152,517.56 " fill="none" id="Tracker-Room" style="stroke: #A80036; stroke-width: 1.0;"/><text fill="#000000" font-family="sans-serif" font-size="13" lengthAdjust="spacingAndGlyphs" textLength="88" x="286" y="451.0669">LastLocations</text><text fill="#000000" font-family="sans-serif" font-size="13" lengthAdjust="spacingAndGlyphs" textLength="23" x="325.7012" y="408.2476">0..*</text><text fill="#000000" font-family="sans-serif" font-size="13" lengthAdjust="spacingAndGlyphs" textLength="23" x="191.0612" y="508.8574">0..*</text><!--MD5=[37a8fa77bc8482f8c1d19019d53a6db0]
link Tracker to Room--><path d="M329.286,369.482 C270.791,389.296 203.482,415.64 182,438 C162.994,457.784 153.168,487.459 148.136,510.853 " fill="none" id="Tracker-Room-1" style="stroke: #A80036; stroke-width: 1.0;"/><text fill="#000000" font-family="sans-serif" font-size="13" lengthAdjust="spacingAndGlyphs" textLength="81" x="183" y="451.0669">LastLocation</text><text fill="#000000" font-family="sans-serif" font-size="13" lengthAdjust="spacingAndGlyphs" textLength="23" x="298.339" y="368.2702">0..*</text><text fill="#000000" font-family="sans-serif" font-size="13" lengthAdjust="spacingAndGlyphs" textLength="8" x="140.3384" y="500.0138">1</text><!--MD5=[514d8bc3bab5b01ddee051b7d234711c]
link Tracker to Command--><path d="M426,388.15 C426,423.606 426,471.159 426,504.97 " fill="none" id="Tracker-Command" style="stroke: #A80036; stroke-width: 1.0;"/><text fill="#000000" font-family="sans-serif" font-size="13" lengthAdjust="spacingAndGlyphs" textLength="104" x="427" y="451.0669">NextCommands</text><text fill="#000000" font-family="sans-serif" font-size="13" lengthAdjust="spacingAndGlyphs" textLength="8" x="417.4375" y="408.2476">1</text><text fill="#000000" font-family="sans-serif" font-size="13" lengthAdjust="spacingAndGlyphs" textLength="23" x="401.1672" y="493.9613">0..*</text><!--MD5=[648bbffdbdc834d6205651271a5cb82d]
link Tracker to ScanResult--><path d="M488.95,388.188 C507.355,403.43 527.063,420.784 544,438 C564.382,458.719 584.911,483.846 601.008,504.751 " fill="none" id="Tracker-ScanResult" style="stroke: #A80036; stroke-width: 1.0;"/><text fill="#000000" font-family="sans-serif" font-size="13" lengthAdjust="spacingAndGlyphs" textLength="8" x="489.2398" y="408.2909">1</text><text fill="#000000" font-family="sans-serif" font-size="13" lengthAdjust="spacingAndGlyphs" textLength="23" x="571.5014" y="494.0254">0..*</text><!--MD5=[f66783589ebc018c9de3bc90dc758863]
link Command to CommandType--><path d="M426,591.476 C426,626.361 426,675.327 426,708.945 " fill="none" id="Command-CommandType" style="stroke: #A80036; stroke-width: 1.0;"/><!--MD5=[f3f59008c1811a4e757a926ecda107b3]
link Room to BSSIDTrackingData--><path d="M143,585.316 C143,615.125 143,657.813 143,691.842 " fill="none" id="Room-BSSIDTrackingData" style="stroke: #A80036; stroke-width: 1.0;"/><text fill="#000000" font-family="sans-serif" font-size="13" lengthAdjust="spacingAndGlyphs" textLength="8" x="134.3625" y="604.5672">1</text><text fill="#000000" font-family="sans-serif" font-size="13" lengthAdjust="spacingAndGlyphs" textLength="23" x="118.5266" y="680.7597">0..*</text><!--MD5=[ae0abbb1da3e3c62639091a71b2669ee]
link Workflow to Step--><path d="M218.369,161.631 C193.969,175.886 168.63,195.856 155,222 C143.345,244.356 144.8,272.551 149.312,295.487 " fill="none" id="Workflow-Step" style="stroke: #A80036; stroke-width: 1.0;"/><text fill="#000000" font-family="sans-serif" font-size="13" lengthAdjust="spacingAndGlyphs" textLength="62" x="156" y="235.0669">StartStep</text><!--MD5=[ae0abbb1da3e3c62639091a71b2669ee]
link Workflow to Step--><path d="M263.454,170.482 C253.323,190.92 240.038,216.704 227,239 C215.933,257.924 202.762,278.237 191.179,295.471 " fill="none" id="Workflow-Step-1" style="stroke: #A80036; stroke-width: 1.0;"/><text fill="#000000" font-family="sans-serif" font-size="13" lengthAdjust="spacingAndGlyphs" textLength="78" x="238" y="235.0669">CurrentStep</text><!--MD5=[233cada1e80193170e953d9fc4a4f6b8]
link Step to Room--><path d="M123.175,381.902 C110.697,398.224 98.4421,417.814 92,438 C83.9965,463.078 96.2261,489.875 110.711,510.624 " fill="none" id="Step-Room" style="stroke: #A80036; stroke-width: 1.0;"/><text fill="#000000" font-family="sans-serif" font-size="13" lengthAdjust="spacingAndGlyphs" textLength="8" x="108.3498" y="402.059">1</text><text fill="#000000" font-family="sans-serif" font-size="13" lengthAdjust="spacingAndGlyphs" textLength="24" x="79.0985" y="500.0228">0..1</text><!--MD5=[c147b3d97de3ce8730e44dd4574a2a0f]
link Step to Step--><path d="M222.521,318.547 C249.353,316.714 272.5,323.365 272.5,338.5 C272.5,353.635 249.353,360.286 222.521,358.453 " fill="none" id="Step-Step" style="stroke: #A80036; stroke-width: 1.0;"/><text fill="#000000" font-family="sans-serif" font-size="13" lengthAdjust="spacingAndGlyphs" textLength="8" x="230.3845" y="312.2509">1</text><text fill="#000000" font-family="sans-serif" font-size="13" lengthAdjust="spacingAndGlyphs" textLength="24" x="230.453" y="356.8666">0..2</text><!--MD5=[d790a0a42f3c3a2c42cd651ef96d4874]
reverse link TrackerResponse to TrackingInformationResponse--><path d="M798.726,182.719 C792.467,200.741 784.654,221.124 776,239 C762.941,265.976 744.419,294.918 731.217,314.399 " fill="none" id="TrackerResponse&lt;-TrackingInformationResponse" style="stroke: #A80036; stroke-width: 1.0;"/><polygon fill="none" points="792.124,180.39,805.095,163.635,805.404,184.822,792.124,180.39" style="stroke: #A80036; stroke-width: 1.0;"/><!--MD5=[b0eefe6cb417a80ee1478c9014aa7d10]
link TrackingInformationResponse to ScanResult--><path d="M705.64,362.9 C691.904,397.24 666.063,461.842 648.939,504.654 " fill="none" id="TrackingInformationResponse-ScanResult" style="stroke: #A80036; stroke-width: 1.0;"/><text fill="#000000" font-family="sans-serif" font-size="13" lengthAdjust="spacingAndGlyphs" textLength="8" x="694.3835" y="382.7587">1</text><text fill="#000000" font-family="sans-serif" font-size="13" lengthAdjust="spacingAndGlyphs" textLength="23" x="626.7718" y="493.9136">0..*</text><!--MD5=[2dff63789068c9b40136f103372ec67b]
@startuml
skinparam nodesep 50
skinparam ranksep 100

package model {
  class Tracker {
    UInt16 ID
    String Label
    Time LastPoll <no cbor>
    Time LastSleepTime <no cbor>
  }
  
  enum TrackerStatus {
    Idle = 1
    Learning = 2
    Tracking = 3
  }
  hide TrackerStatus methods
  
  class Command {
    UInt16 ID
    UInt16 SleepTimeSec
    Time CreatedAt
  }

  enum CommandType {
    SendTrackingInformation = 0
    SignalLocation = 1
    Sleep = 2
  }  
  hide CommandType methods
  together {
    class Command
    enum CommandType
  }

  class Room {
    UInt16 ID
    String Label
  }
  
  class BSSIDTrackingData {
    String BSSID
    Int Minimum
    Int Maximum
    Int Median
    Float Average
  }
  together {
    class Room
    class BSSIDTrackingData
  }
  
  class Workflow {
  	String Label
    Boolean IsTemplate
  }
  
  class Step {
  	String Label
    Time StartedOn
    Time CompletedOn
  }
  together {
  	class Workflow
    class Step
  }

  package communication {
    class TrackerResponse {
      Float BatteryPercentage
    }

    class TrackingInformationResponse {
    }

    class ScanResult {
      String SSID
      String BSSID
      Int32 RSSID
    }

    class ErrorResponse {
      String Error
    }
  }

  Tracker -up- TrackerStatus
  Tracker "0..*" - - "0..*" Room : LastLocations
  Tracker "0..*" - - "1" Room : LastLocation
  Tracker "1" - - "0..*" Command : NextCommands
  Tracker "1" - - "0..*" ScanResult

  Command - - CommandType

  Room "1" - - "0..*" BSSIDTrackingData

  Workflow - - Step : StartStep
  Workflow - - Step : CurrentStep
  Step "1" - - "0..1" Room
  Step "1" - - "0..2" Step

  TrackerResponse <|- - TrackingInformationResponse
  TrackingInformationResponse "1" - - "0..*" ScanResult
}
@enduml

PlantUML version 1.2019.13(Tue Dec 10 17:18:29 UTC 2019)
(GPL source distribution)
Java Runtime: OpenJDK Runtime Environment
JVM: OpenJDK 64-Bit Server VM
Java Version: 1.8.0_232-b09
Operating System: Linux
Default Encoding: UTF-8
Language: en
Country: null
--></g></svg>