<?xml version="1.0" encoding="UTF-8" standalone="no"?><svg xmlns="http://www.w3.org/2000/svg" xmlns:xlink="http://www.w3.org/1999/xlink" contentScriptType="application/ecmascript" contentStyleType="text/css" height="467px" preserveAspectRatio="none" style="width:741px;height:467px;" version="1.1" viewBox="0 0 741 467" width="741px" zoomAndPan="magnify"><defs><filter height="300%" id="f15etd911noc3o" width="300%" x="-1" y="-1"><feGaussianBlur result="blurOut" stdDeviation="2.0"/><feColorMatrix in="blurOut" result="blurOut2" type="matrix" values="0 0 0 0 0 0 0 0 0 0 0 0 0 0 0 0 0 0 .4 0"/><feOffset dx="4.0" dy="4.0" in="blurOut2" result="blurOut3"/><feBlend in="SourceGraphic" in2="blurOut3" mode="normal"/></filter></defs><g><!--MD5=[b3ff875478fad275bd5f47ddbdd021c2]
class Tracker--><rect fill="#FEFECE" filter="url(#f15etd911noc3o)" height="112.0234" id="Tracker" style="stroke: #A80036; stroke-width: 1.5;" width="166" x="142.5" y="8"/><ellipse cx="197.75" cy="24" fill="#ADD1B2" rx="11" ry="11" style="stroke: #A80036; stroke-width: 1.0;"/><path d="M200.7188,29.6406 Q200.1406,29.9375 199.5,30.0859 Q198.8594,30.2344 198.1563,30.2344 Q195.6563,30.2344 194.3359,28.5859 Q193.0156,26.9375 193.0156,23.8125 Q193.0156,20.6875 194.3359,19.0313 Q195.6563,17.375 198.1563,17.375 Q198.8594,17.375 199.5078,17.5313 Q200.1563,17.6875 200.7188,17.9844 L200.7188,20.7031 Q200.0938,20.125 199.5,19.8516 Q198.9063,19.5781 198.2813,19.5781 Q196.9375,19.5781 196.25,20.6484 Q195.5625,21.7188 195.5625,23.8125 Q195.5625,25.9063 196.25,26.9766 Q196.9375,28.0469 198.2813,28.0469 Q198.9063,28.0469 199.5,27.7734 Q200.0938,27.5 200.7188,26.9219 L200.7188,29.6406 Z "/><text fill="#000000" font-family="sans-serif" font-size="12" lengthAdjust="spacingAndGlyphs" textLength="47" x="218.25" y="28.1543">Tracker</text><line style="stroke: #A80036; stroke-width: 1.5;" x1="143.5" x2="307.5" y1="40" y2="40"/><text fill="#000000" font-family="sans-serif" font-size="11" lengthAdjust="spacingAndGlyphs" textLength="29" x="148.5" y="54.2104">Int ID</text><text fill="#000000" font-family="sans-serif" font-size="11" lengthAdjust="spacingAndGlyphs" textLength="68" x="148.5" y="67.0151">String Label</text><text fill="#000000" font-family="sans-serif" font-size="11" lengthAdjust="spacingAndGlyphs" textLength="76" x="148.5" y="79.8198">Time LastPoll</text><text fill="#000000" font-family="sans-serif" font-size="11" lengthAdjust="spacingAndGlyphs" textLength="116" x="148.5" y="92.6245">Time LastSleepTime</text><line style="stroke: #A80036; stroke-width: 1.5;" x1="143.5" x2="307.5" y1="99.2188" y2="99.2188"/><text fill="#000000" font-family="sans-serif" font-size="11" lengthAdjust="spacingAndGlyphs" textLength="154" x="148.5" y="113.4292">Room GetCurrentLocation()</text><!--MD5=[d218c48b946d362ff1ecd879cabebcad]
class Room--><rect fill="#FEFECE" filter="url(#f15etd911noc3o)" height="73.6094" id="Room" style="stroke: #A80036; stroke-width: 1.5;" width="80" x="60.5" y="203"/><ellipse cx="81.35" cy="219" fill="#ADD1B2" rx="11" ry="11" style="stroke: #A80036; stroke-width: 1.0;"/><path d="M84.3188,224.6406 Q83.7406,224.9375 83.1,225.0859 Q82.4594,225.2344 81.7563,225.2344 Q79.2563,225.2344 77.9359,223.5859 Q76.6156,221.9375 76.6156,218.8125 Q76.6156,215.6875 77.9359,214.0313 Q79.2563,212.375 81.7563,212.375 Q82.4594,212.375 83.1078,212.5313 Q83.7563,212.6875 84.3188,212.9844 L84.3188,215.7031 Q83.6938,215.125 83.1,214.8516 Q82.5063,214.5781 81.8813,214.5781 Q80.5375,214.5781 79.85,215.6484 Q79.1625,216.7188 79.1625,218.8125 Q79.1625,220.9063 79.85,221.9766 Q80.5375,223.0469 81.8813,223.0469 Q82.5063,223.0469 83.1,222.7734 Q83.6938,222.5 84.3188,221.9219 L84.3188,224.6406 Z "/><text fill="#000000" font-family="sans-serif" font-size="12" lengthAdjust="spacingAndGlyphs" textLength="35" x="96.65" y="223.1543">Room</text><line style="stroke: #A80036; stroke-width: 1.5;" x1="61.5" x2="139.5" y1="235" y2="235"/><text fill="#000000" font-family="sans-serif" font-size="11" lengthAdjust="spacingAndGlyphs" textLength="29" x="66.5" y="249.2104">Int ID</text><text fill="#000000" font-family="sans-serif" font-size="11" lengthAdjust="spacingAndGlyphs" textLength="68" x="66.5" y="262.0151">String Label</text><line style="stroke: #A80036; stroke-width: 1.5;" x1="61.5" x2="139.5" y1="268.6094" y2="268.6094"/><!--MD5=[521817ab83e81da341a3f4b5e91bae41]
class Command--><rect fill="#FEFECE" filter="url(#f15etd911noc3o)" height="73.6094" id="Command" style="stroke: #A80036; stroke-width: 1.5;" width="174" x="185.5" y="203"/><ellipse cx="237.25" cy="219" fill="#ADD1B2" rx="11" ry="11" style="stroke: #A80036; stroke-width: 1.0;"/><path d="M240.2188,224.6406 Q239.6406,224.9375 239,225.0859 Q238.3594,225.2344 237.6563,225.2344 Q235.1563,225.2344 233.8359,223.5859 Q232.5156,221.9375 232.5156,218.8125 Q232.5156,215.6875 233.8359,214.0313 Q235.1563,212.375 237.6563,212.375 Q238.3594,212.375 239.0078,212.5313 Q239.6563,212.6875 240.2188,212.9844 L240.2188,215.7031 Q239.5938,215.125 239,214.8516 Q238.4063,214.5781 237.7813,214.5781 Q236.4375,214.5781 235.75,215.6484 Q235.0625,216.7188 235.0625,218.8125 Q235.0625,220.9063 235.75,221.9766 Q236.4375,223.0469 237.7813,223.0469 Q238.4063,223.0469 239,222.7734 Q239.5938,222.5 240.2188,221.9219 L240.2188,224.6406 Z "/><text fill="#000000" font-family="sans-serif" font-size="12" lengthAdjust="spacingAndGlyphs" textLength="62" x="257.75" y="223.1543">Command</text><line style="stroke: #A80036; stroke-width: 1.5;" x1="186.5" x2="358.5" y1="235" y2="235"/><text fill="#000000" font-family="sans-serif" font-size="11" lengthAdjust="spacingAndGlyphs" textLength="29" x="191.5" y="249.2104">Int ID</text><text fill="#000000" font-family="sans-serif" font-size="11" lengthAdjust="spacingAndGlyphs" textLength="162" x="191.5" y="262.0151">Int SleepTimeSec [transient]</text><line style="stroke: #A80036; stroke-width: 1.5;" x1="186.5" x2="358.5" y1="268.6094" y2="268.6094"/><!--MD5=[64ad5f0319badfc6629542683b018b66]
class CommandType--><rect fill="#FEFECE" filter="url(#f15etd911noc3o)" height="78.4141" id="CommandType" style="stroke: #A80036; stroke-width: 1.5;" width="178" x="192.5" y="361"/><ellipse cx="232.25" cy="377" fill="#EB937F" rx="11" ry="11" style="stroke: #A80036; stroke-width: 1.0;"/><path d="M236.3594,383 L228.6406,383 L228.6406,370.6094 L236.3594,370.6094 L236.3594,372.7656 L231.0938,372.7656 L231.0938,375.4375 L235.8594,375.4375 L235.8594,377.5938 L231.0938,377.5938 L231.0938,380.8438 L236.3594,380.8438 L236.3594,383 Z "/><text fill="#000000" font-family="sans-serif" font-size="12" lengthAdjust="spacingAndGlyphs" textLength="91" x="251.75" y="381.1543">CommandType</text><line style="stroke: #A80036; stroke-width: 1.5;" x1="193.5" x2="369.5" y1="393" y2="393"/><text fill="#000000" font-family="sans-serif" font-size="11" lengthAdjust="spacingAndGlyphs" textLength="166" x="198.5" y="407.2104">SendTrackingInformation = 0</text><text fill="#000000" font-family="sans-serif" font-size="11" lengthAdjust="spacingAndGlyphs" textLength="106" x="198.5" y="420.0151">SignalLocation = 1</text><text fill="#000000" font-family="sans-serif" font-size="11" lengthAdjust="spacingAndGlyphs" textLength="56" x="198.5" y="432.8198">Sleep = 2</text><!--MD5=[2b26ef4097a9f8e875c661187036ebae]
class BSSIDTrackingData--><rect fill="#FEFECE" filter="url(#f15etd911noc3o)" height="112.0234" id="BSSIDTrackingData" style="stroke: #A80036; stroke-width: 1.5;" width="151" x="6" y="344"/><ellipse cx="21" cy="360" fill="#ADD1B2" rx="11" ry="11" style="stroke: #A80036; stroke-width: 1.0;"/><path d="M23.9688,365.6406 Q23.3906,365.9375 22.75,366.0859 Q22.1094,366.2344 21.4063,366.2344 Q18.9063,366.2344 17.5859,364.5859 Q16.2656,362.9375 16.2656,359.8125 Q16.2656,356.6875 17.5859,355.0313 Q18.9063,353.375 21.4063,353.375 Q22.1094,353.375 22.7578,353.5313 Q23.4063,353.6875 23.9688,353.9844 L23.9688,356.7031 Q23.3438,356.125 22.75,355.8516 Q22.1563,355.5781 21.5313,355.5781 Q20.1875,355.5781 19.5,356.6484 Q18.8125,357.7188 18.8125,359.8125 Q18.8125,361.9063 19.5,362.9766 Q20.1875,364.0469 21.5313,364.0469 Q22.1563,364.0469 22.75,363.7734 Q23.3438,363.5 23.9688,362.9219 L23.9688,365.6406 Z "/><text fill="#000000" font-family="sans-serif" font-size="12" lengthAdjust="spacingAndGlyphs" textLength="119" x="35" y="364.1543">BSSIDTrackingData</text><line style="stroke: #A80036; stroke-width: 1.5;" x1="7" x2="156" y1="376" y2="376"/><text fill="#000000" font-family="sans-serif" font-size="11" lengthAdjust="spacingAndGlyphs" textLength="53" x="12" y="390.2104">Int BSSID</text><text fill="#000000" font-family="sans-serif" font-size="11" lengthAdjust="spacingAndGlyphs" textLength="69" x="12" y="403.0151">Int Minimum</text><text fill="#000000" font-family="sans-serif" font-size="11" lengthAdjust="spacingAndGlyphs" textLength="72" x="12" y="415.8198">Int Maximum</text><text fill="#000000" font-family="sans-serif" font-size="11" lengthAdjust="spacingAndGlyphs" textLength="58" x="12" y="428.6245">Int Median</text><text fill="#000000" font-family="sans-serif" font-size="11" lengthAdjust="spacingAndGlyphs" textLength="77" x="12" y="441.4292">Float Average</text><line style="stroke: #A80036; stroke-width: 1.5;" x1="7" x2="156" y1="448.0234" y2="448.0234"/><!--MD5=[e8f59f8f3251bf3d432a9f687c7f41d6]
class TrackingInformationResponse--><rect fill="#FEFECE" filter="url(#f15etd911noc3o)" height="48" id="TrackingInformationResponse" style="stroke: #A80036; stroke-width: 1.5;" width="218" x="351.5" y="40"/><ellipse cx="366.5" cy="56" fill="#ADD1B2" rx="11" ry="11" style="stroke: #A80036; stroke-width: 1.0;"/><path d="M369.4688,61.6406 Q368.8906,61.9375 368.25,62.0859 Q367.6094,62.2344 366.9063,62.2344 Q364.4063,62.2344 363.0859,60.5859 Q361.7656,58.9375 361.7656,55.8125 Q361.7656,52.6875 363.0859,51.0313 Q364.4063,49.375 366.9063,49.375 Q367.6094,49.375 368.2578,49.5313 Q368.9063,49.6875 369.4688,49.9844 L369.4688,52.7031 Q368.8438,52.125 368.25,51.8516 Q367.6563,51.5781 367.0313,51.5781 Q365.6875,51.5781 365,52.6484 Q364.3125,53.7188 364.3125,55.8125 Q364.3125,57.9063 365,58.9766 Q365.6875,60.0469 367.0313,60.0469 Q367.6563,60.0469 368.25,59.7734 Q368.8438,59.5 369.4688,58.9219 L369.4688,61.6406 Z "/><text fill="#000000" font-family="sans-serif" font-size="12" lengthAdjust="spacingAndGlyphs" textLength="186" x="380.5" y="60.1543">TrackingInformationResponse</text><line style="stroke: #A80036; stroke-width: 1.5;" x1="352.5" x2="568.5" y1="72" y2="72"/><line style="stroke: #A80036; stroke-width: 1.5;" x1="352.5" x2="568.5" y1="80" y2="80"/><!--MD5=[b25bbcd64bdd811ded8b77e4e8328db5]
class ScanResult--><rect fill="#FEFECE" filter="url(#f15etd911noc3o)" height="86.4141" id="ScanResult" style="stroke: #A80036; stroke-width: 1.5;" width="102" x="409.5" y="197"/><ellipse cx="424.5" cy="213" fill="#ADD1B2" rx="11" ry="11" style="stroke: #A80036; stroke-width: 1.0;"/><path d="M427.4688,218.6406 Q426.8906,218.9375 426.25,219.0859 Q425.6094,219.2344 424.9063,219.2344 Q422.4063,219.2344 421.0859,217.5859 Q419.7656,215.9375 419.7656,212.8125 Q419.7656,209.6875 421.0859,208.0313 Q422.4063,206.375 424.9063,206.375 Q425.6094,206.375 426.2578,206.5313 Q426.9063,206.6875 427.4688,206.9844 L427.4688,209.7031 Q426.8438,209.125 426.25,208.8516 Q425.6563,208.5781 425.0313,208.5781 Q423.6875,208.5781 423,209.6484 Q422.3125,210.7188 422.3125,212.8125 Q422.3125,214.9063 423,215.9766 Q423.6875,217.0469 425.0313,217.0469 Q425.6563,217.0469 426.25,216.7734 Q426.8438,216.5 427.4688,215.9219 L427.4688,218.6406 Z "/><text fill="#000000" font-family="sans-serif" font-size="12" lengthAdjust="spacingAndGlyphs" textLength="70" x="438.5" y="217.1543">ScanResult</text><line style="stroke: #A80036; stroke-width: 1.5;" x1="410.5" x2="510.5" y1="229" y2="229"/><text fill="#000000" font-family="sans-serif" font-size="11" lengthAdjust="spacingAndGlyphs" textLength="65" x="415.5" y="243.2104">String SSID</text><text fill="#000000" font-family="sans-serif" font-size="11" lengthAdjust="spacingAndGlyphs" textLength="53" x="415.5" y="256.0151">Int BSSID</text><text fill="#000000" font-family="sans-serif" font-size="11" lengthAdjust="spacingAndGlyphs" textLength="52" x="415.5" y="268.8198">Int RSSID</text><line style="stroke: #A80036; stroke-width: 1.5;" x1="410.5" x2="510.5" y1="275.4141" y2="275.4141"/><!--MD5=[d70279aee16cb60954d73d22597b95b5]
class ErrorResponse--><rect fill="#FEFECE" filter="url(#f15etd911noc3o)" height="60.8047" id="ErrorResponse" style="stroke: #A80036; stroke-width: 1.5;" width="125" x="605" y="33.5"/><ellipse cx="620" cy="49.5" fill="#ADD1B2" rx="11" ry="11" style="stroke: #A80036; stroke-width: 1.0;"/><path d="M622.9688,55.1406 Q622.3906,55.4375 621.75,55.5859 Q621.1094,55.7344 620.4063,55.7344 Q617.9063,55.7344 616.5859,54.0859 Q615.2656,52.4375 615.2656,49.3125 Q615.2656,46.1875 616.5859,44.5313 Q617.9063,42.875 620.4063,42.875 Q621.1094,42.875 621.7578,43.0313 Q622.4063,43.1875 622.9688,43.4844 L622.9688,46.2031 Q622.3438,45.625 621.75,45.3516 Q621.1563,45.0781 620.5313,45.0781 Q619.1875,45.0781 618.5,46.1484 Q617.8125,47.2188 617.8125,49.3125 Q617.8125,51.4063 618.5,52.4766 Q619.1875,53.5469 620.5313,53.5469 Q621.1563,53.5469 621.75,53.2734 Q622.3438,53 622.9688,52.4219 L622.9688,55.1406 Z "/><text fill="#000000" font-family="sans-serif" font-size="12" lengthAdjust="spacingAndGlyphs" textLength="93" x="634" y="53.6543">ErrorResponse</text><line style="stroke: #A80036; stroke-width: 1.5;" x1="606" x2="729" y1="65.5" y2="65.5"/><text fill="#000000" font-family="sans-serif" font-size="11" lengthAdjust="spacingAndGlyphs" textLength="67" x="611" y="79.7104">String Error</text><line style="stroke: #A80036; stroke-width: 1.5;" x1="606" x2="729" y1="86.3047" y2="86.3047"/><!--MD5=[37a8fa77bc8482f8c1d19019d53a6db0]
link Tracker to Room--><path d="M174.534,120.428 C166.498,130.033 158.532,140.115 151.5,150 C139.628,166.688 128.131,186.343 119.067,202.931 " fill="none" id="Tracker-Room" style="stroke: #A80036; stroke-width: 1.0;"/><text fill="#000000" font-family="sans-serif" font-size="13" lengthAdjust="spacingAndGlyphs" textLength="88" x="152.5" y="163.0669">LastLocations</text><text fill="#000000" font-family="sans-serif" font-size="13" lengthAdjust="spacingAndGlyphs" textLength="23" x="144.3114" y="139.8929">0..*</text><text fill="#000000" font-family="sans-serif" font-size="13" lengthAdjust="spacingAndGlyphs" textLength="23" x="97.3701" y="191.8287">0..*</text><!--MD5=[514d8bc3bab5b01ddee051b7d234711c]
link Tracker to Command--><path d="M240.371,120.055 C247.686,147.136 256.297,179.013 262.762,202.947 " fill="none" id="Tracker-Command" style="stroke: #A80036; stroke-width: 1.0;"/><text fill="#000000" font-family="sans-serif" font-size="13" lengthAdjust="spacingAndGlyphs" textLength="104" x="253.5" y="163.0669">NextCommands</text><text fill="#000000" font-family="sans-serif" font-size="13" lengthAdjust="spacingAndGlyphs" textLength="8" x="233.7638" y="140.2719">1</text><text fill="#000000" font-family="sans-serif" font-size="13" lengthAdjust="spacingAndGlyphs" textLength="23" x="235.8462" y="191.8477">0..*</text><!--MD5=[f66783589ebc018c9de3bc90dc758863]
link Command to CommandType--><path d="M274.565,277.248 C275.992,302.303 277.887,335.567 279.335,360.9941 " fill="none" id="Command-CommandType" style="stroke: #A80036; stroke-width: 1.0;"/><!--MD5=[f3f59008c1811a4e757a926ecda107b3]
link Room to BSSIDTrackingData--><path d="M96.141,277.248 C93.7745,296.928 90.799,321.672 88.1494,343.705 " fill="none" id="Room-BSSIDTrackingData" style="stroke: #A80036; stroke-width: 1.0;"/><text fill="#000000" font-family="sans-serif" font-size="13" lengthAdjust="spacingAndGlyphs" textLength="8" x="86.7565" y="296.7696">1</text><text fill="#000000" font-family="sans-serif" font-size="13" lengthAdjust="spacingAndGlyphs" textLength="23" x="64.5582" y="333.0035">0..*</text><!--MD5=[b0eefe6cb417a80ee1478c9014aa7d10]
link TrackingInformationResponse to ScanResult--><path d="M460.5,88.106 C460.5,115.747 460.5,162.564 460.5,196.735 " fill="none" id="TrackingInformationResponse-ScanResult" style="stroke: #A80036; stroke-width: 1.0;"/><text fill="#000000" font-family="sans-serif" font-size="13" lengthAdjust="spacingAndGlyphs" textLength="8" x="451.525" y="107.893">1</text><text fill="#000000" font-family="sans-serif" font-size="13" lengthAdjust="spacingAndGlyphs" textLength="23" x="435.7391" y="186.007">0..*</text><!--MD5=[a210d648c97f36f0c88e0eb29f01f916]
@startuml
class Tracker {
	Int ID
	String Label
	Room GetCurrentLocation()
    Time LastPoll
    Time LastSleepTime
}

class Room {
	Int ID
    String Label
}

class Command {
	Int ID
    Int SleepTimeSec [transient]
}

enum CommandType {
	SendTrackingInformation = 0
    SignalLocation = 1
    Sleep = 2
}
hide CommandType methods

class BSSIDTrackingData {
    Int BSSID
	Int Minimum
    Int Maximum
    Int Median
    Float Average
}

class TrackingInformationResponse {
}

class ScanResult {
	String SSID
    Int BSSID
    Int RSSID
}

class ErrorResponse {
	String Error
}

Tracker "0..*" - - "0..*" Room : LastLocations
Tracker "1" - - "0..*" Command : NextCommands

Command - - CommandType


Room "1" - - "0..*" BSSIDTrackingData

TrackingInformationResponse "1" - - "0..*" ScanResult
@enduml

PlantUML version 1.2019.12(Sun Nov 03 10:24:54 UTC 2019)
(GPL source distribution)
Java Runtime: OpenJDK Runtime Environment
JVM: OpenJDK 64-Bit Server VM
Java Version: 1.8.0_232-b09
Operating System: Linux
Default Encoding: UTF-8
Language: en
Country: null
--></g></svg>