<?xml version="1.0" encoding="UTF-8" standalone="no"?><svg xmlns="http://www.w3.org/2000/svg" xmlns:xlink="http://www.w3.org/1999/xlink" contentScriptType="application/ecmascript" contentStyleType="text/css" height="467px" preserveAspectRatio="none" style="width:748px;height:467px;" version="1.1" viewBox="0 0 748 467" width="748px" zoomAndPan="magnify"><defs><filter height="300%" id="f1vgth1dtbhe7a" width="300%" x="-1" y="-1"><feGaussianBlur result="blurOut" stdDeviation="2.0"/><feColorMatrix in="blurOut" result="blurOut2" type="matrix" values="0 0 0 0 0 0 0 0 0 0 0 0 0 0 0 0 0 0 .4 0"/><feOffset dx="4.0" dy="4.0" in="blurOut2" result="blurOut3"/><feBlend in="SourceGraphic" in2="blurOut3" mode="normal"/></filter></defs><g><!--MD5=[b3ff875478fad275bd5f47ddbdd021c2]
class Tracker--><rect fill="#FEFECE" filter="url(#f1vgth1dtbhe7a)" height="112.0234" id="Tracker" style="stroke: #A80036; stroke-width: 1.5;" width="166" x="98.5" y="8"/><ellipse cx="153.75" cy="24" fill="#ADD1B2" rx="11" ry="11" style="stroke: #A80036; stroke-width: 1.0;"/><path d="M156.7188,29.6406 Q156.1406,29.9375 155.5,30.0859 Q154.8594,30.2344 154.1563,30.2344 Q151.6563,30.2344 150.3359,28.5859 Q149.0156,26.9375 149.0156,23.8125 Q149.0156,20.6875 150.3359,19.0313 Q151.6563,17.375 154.1563,17.375 Q154.8594,17.375 155.5078,17.5313 Q156.1563,17.6875 156.7188,17.9844 L156.7188,20.7031 Q156.0938,20.125 155.5,19.8516 Q154.9063,19.5781 154.2813,19.5781 Q152.9375,19.5781 152.25,20.6484 Q151.5625,21.7188 151.5625,23.8125 Q151.5625,25.9063 152.25,26.9766 Q152.9375,28.0469 154.2813,28.0469 Q154.9063,28.0469 155.5,27.7734 Q156.0938,27.5 156.7188,26.9219 L156.7188,29.6406 Z "/><text fill="#000000" font-family="sans-serif" font-size="12" lengthAdjust="spacingAndGlyphs" textLength="47" x="174.25" y="28.1543">Tracker</text><line style="stroke: #A80036; stroke-width: 1.5;" x1="99.5" x2="263.5" y1="40" y2="40"/><text fill="#000000" font-family="sans-serif" font-size="11" lengthAdjust="spacingAndGlyphs" textLength="29" x="104.5" y="54.2104">Int ID</text><text fill="#000000" font-family="sans-serif" font-size="11" lengthAdjust="spacingAndGlyphs" textLength="68" x="104.5" y="67.0151">String Label</text><text fill="#000000" font-family="sans-serif" font-size="11" lengthAdjust="spacingAndGlyphs" textLength="76" x="104.5" y="79.8198">Time LastPoll</text><text fill="#000000" font-family="sans-serif" font-size="11" lengthAdjust="spacingAndGlyphs" textLength="116" x="104.5" y="92.6245">Time LastSleepTime</text><line style="stroke: #A80036; stroke-width: 1.5;" x1="99.5" x2="263.5" y1="99.2188" y2="99.2188"/><text fill="#000000" font-family="sans-serif" font-size="11" lengthAdjust="spacingAndGlyphs" textLength="154" x="104.5" y="113.4292">Room GetCurrentLocation()</text><!--MD5=[d218c48b946d362ff1ecd879cabebcad]
class Room--><rect fill="#FEFECE" filter="url(#f1vgth1dtbhe7a)" height="73.6094" id="Room" style="stroke: #A80036; stroke-width: 1.5;" width="80" x="60.5" y="203"/><ellipse cx="81.35" cy="219" fill="#ADD1B2" rx="11" ry="11" style="stroke: #A80036; stroke-width: 1.0;"/><path d="M84.3188,224.6406 Q83.7406,224.9375 83.1,225.0859 Q82.4594,225.2344 81.7563,225.2344 Q79.2563,225.2344 77.9359,223.5859 Q76.6156,221.9375 76.6156,218.8125 Q76.6156,215.6875 77.9359,214.0313 Q79.2563,212.375 81.7563,212.375 Q82.4594,212.375 83.1078,212.5313 Q83.7563,212.6875 84.3188,212.9844 L84.3188,215.7031 Q83.6938,215.125 83.1,214.8516 Q82.5063,214.5781 81.8813,214.5781 Q80.5375,214.5781 79.85,215.6484 Q79.1625,216.7188 79.1625,218.8125 Q79.1625,220.9063 79.85,221.9766 Q80.5375,223.0469 81.8813,223.0469 Q82.5063,223.0469 83.1,222.7734 Q83.6938,222.5 84.3188,221.9219 L84.3188,224.6406 Z "/><text fill="#000000" font-family="sans-serif" font-size="12" lengthAdjust="spacingAndGlyphs" textLength="35" x="96.65" y="223.1543">Room</text><line style="stroke: #A80036; stroke-width: 1.5;" x1="61.5" x2="139.5" y1="235" y2="235"/><text fill="#000000" font-family="sans-serif" font-size="11" lengthAdjust="spacingAndGlyphs" textLength="29" x="66.5" y="249.2104">Int ID</text><text fill="#000000" font-family="sans-serif" font-size="11" lengthAdjust="spacingAndGlyphs" textLength="68" x="66.5" y="262.0151">String Label</text><line style="stroke: #A80036; stroke-width: 1.5;" x1="61.5" x2="139.5" y1="268.6094" y2="268.6094"/><!--MD5=[521817ab83e81da341a3f4b5e91bae41]
class Command--><rect fill="#FEFECE" filter="url(#f1vgth1dtbhe7a)" height="86.4141" id="Command" style="stroke: #A80036; stroke-width: 1.5;" width="174" x="184.5" y="197"/><ellipse cx="236.25" cy="213" fill="#ADD1B2" rx="11" ry="11" style="stroke: #A80036; stroke-width: 1.0;"/><path d="M239.2188,218.6406 Q238.6406,218.9375 238,219.0859 Q237.3594,219.2344 236.6563,219.2344 Q234.1563,219.2344 232.8359,217.5859 Q231.5156,215.9375 231.5156,212.8125 Q231.5156,209.6875 232.8359,208.0313 Q234.1563,206.375 236.6563,206.375 Q237.3594,206.375 238.0078,206.5313 Q238.6563,206.6875 239.2188,206.9844 L239.2188,209.7031 Q238.5938,209.125 238,208.8516 Q237.4063,208.5781 236.7813,208.5781 Q235.4375,208.5781 234.75,209.6484 Q234.0625,210.7188 234.0625,212.8125 Q234.0625,214.9063 234.75,215.9766 Q235.4375,217.0469 236.7813,217.0469 Q237.4063,217.0469 238,216.7734 Q238.5938,216.5 239.2188,215.9219 L239.2188,218.6406 Z "/><text fill="#000000" font-family="sans-serif" font-size="12" lengthAdjust="spacingAndGlyphs" textLength="62" x="256.75" y="217.1543">Command</text><line style="stroke: #A80036; stroke-width: 1.5;" x1="185.5" x2="357.5" y1="229" y2="229"/><text fill="#000000" font-family="sans-serif" font-size="11" lengthAdjust="spacingAndGlyphs" textLength="29" x="190.5" y="243.2104">Int ID</text><text fill="#000000" font-family="sans-serif" font-size="11" lengthAdjust="spacingAndGlyphs" textLength="162" x="190.5" y="256.0151">Int SleepTimeSec [transient]</text><text fill="#000000" font-family="sans-serif" font-size="11" lengthAdjust="spacingAndGlyphs" textLength="88" x="190.5" y="268.8198">Time CreatedAt</text><line style="stroke: #A80036; stroke-width: 1.5;" x1="185.5" x2="357.5" y1="275.4141" y2="275.4141"/><!--MD5=[64ad5f0319badfc6629542683b018b66]
class CommandType--><rect fill="#FEFECE" filter="url(#f1vgth1dtbhe7a)" height="78.4141" id="CommandType" style="stroke: #A80036; stroke-width: 1.5;" width="178" x="192.5" y="361"/><ellipse cx="232.25" cy="377" fill="#EB937F" rx="11" ry="11" style="stroke: #A80036; stroke-width: 1.0;"/><path d="M236.3594,383 L228.6406,383 L228.6406,370.6094 L236.3594,370.6094 L236.3594,372.7656 L231.0938,372.7656 L231.0938,375.4375 L235.8594,375.4375 L235.8594,377.5938 L231.0938,377.5938 L231.0938,380.8438 L236.3594,380.8438 L236.3594,383 Z "/><text fill="#000000" font-family="sans-serif" font-size="12" lengthAdjust="spacingAndGlyphs" textLength="91" x="251.75" y="381.1543">CommandType</text><line style="stroke: #A80036; stroke-width: 1.5;" x1="193.5" x2="369.5" y1="393" y2="393"/><text fill="#000000" font-family="sans-serif" font-size="11" lengthAdjust="spacingAndGlyphs" textLength="166" x="198.5" y="407.2104">SendTrackingInformation = 0</text><text fill="#000000" font-family="sans-serif" font-size="11" lengthAdjust="spacingAndGlyphs" textLength="106" x="198.5" y="420.0151">SignalLocation = 1</text><text fill="#000000" font-family="sans-serif" font-size="11" lengthAdjust="spacingAndGlyphs" textLength="56" x="198.5" y="432.8198">Sleep = 2</text><!--MD5=[2b26ef4097a9f8e875c661187036ebae]
class BSSIDTrackingData--><rect fill="#FEFECE" filter="url(#f1vgth1dtbhe7a)" height="112.0234" id="BSSIDTrackingData" style="stroke: #A80036; stroke-width: 1.5;" width="151" x="6" y="344"/><ellipse cx="21" cy="360" fill="#ADD1B2" rx="11" ry="11" style="stroke: #A80036; stroke-width: 1.0;"/><path d="M23.9688,365.6406 Q23.3906,365.9375 22.75,366.0859 Q22.1094,366.2344 21.4063,366.2344 Q18.9063,366.2344 17.5859,364.5859 Q16.2656,362.9375 16.2656,359.8125 Q16.2656,356.6875 17.5859,355.0313 Q18.9063,353.375 21.4063,353.375 Q22.1094,353.375 22.7578,353.5313 Q23.4063,353.6875 23.9688,353.9844 L23.9688,356.7031 Q23.3438,356.125 22.75,355.8516 Q22.1563,355.5781 21.5313,355.5781 Q20.1875,355.5781 19.5,356.6484 Q18.8125,357.7188 18.8125,359.8125 Q18.8125,361.9063 19.5,362.9766 Q20.1875,364.0469 21.5313,364.0469 Q22.1563,364.0469 22.75,363.7734 Q23.3438,363.5 23.9688,362.9219 L23.9688,365.6406 Z "/><text fill="#000000" font-family="sans-serif" font-size="12" lengthAdjust="spacingAndGlyphs" textLength="119" x="35" y="364.1543">BSSIDTrackingData</text><line style="stroke: #A80036; stroke-width: 1.5;" x1="7" x2="156" y1="376" y2="376"/><text fill="#000000" font-family="sans-serif" font-size="11" lengthAdjust="spacingAndGlyphs" textLength="53" x="12" y="390.2104">Int BSSID</text><text fill="#000000" font-family="sans-serif" font-size="11" lengthAdjust="spacingAndGlyphs" textLength="69" x="12" y="403.0151">Int Minimum</text><text fill="#000000" font-family="sans-serif" font-size="11" lengthAdjust="spacingAndGlyphs" textLength="72" x="12" y="415.8198">Int Maximum</text><text fill="#000000" font-family="sans-serif" font-size="11" lengthAdjust="spacingAndGlyphs" textLength="58" x="12" y="428.6245">Int Median</text><text fill="#000000" font-family="sans-serif" font-size="11" lengthAdjust="spacingAndGlyphs" textLength="77" x="12" y="441.4292">Float Average</text><line style="stroke: #A80036; stroke-width: 1.5;" x1="7" x2="156" y1="448.0234" y2="448.0234"/><!--MD5=[38779eaf1f36d42563218d077fa59877]
class TrackerResponse--><rect fill="#FEFECE" filter="url(#f1vgth1dtbhe7a)" height="60.8047" id="TrackerResponse" style="stroke: #A80036; stroke-width: 1.5;" width="148" x="428.5" y="33.5"/><ellipse cx="446.65" cy="49.5" fill="#ADD1B2" rx="11" ry="11" style="stroke: #A80036; stroke-width: 1.0;"/><path d="M449.6188,55.1406 Q449.0406,55.4375 448.4,55.5859 Q447.7594,55.7344 447.0563,55.7344 Q444.5563,55.7344 443.2359,54.0859 Q441.9156,52.4375 441.9156,49.3125 Q441.9156,46.1875 443.2359,44.5313 Q444.5563,42.875 447.0563,42.875 Q447.7594,42.875 448.4078,43.0313 Q449.0563,43.1875 449.6188,43.4844 L449.6188,46.2031 Q448.9938,45.625 448.4,45.3516 Q447.8063,45.0781 447.1813,45.0781 Q445.8375,45.0781 445.15,46.1484 Q444.4625,47.2188 444.4625,49.3125 Q444.4625,51.4063 445.15,52.4766 Q445.8375,53.5469 447.1813,53.5469 Q447.8063,53.5469 448.4,53.2734 Q448.9938,53 449.6188,52.4219 L449.6188,55.1406 Z "/><text fill="#000000" font-family="sans-serif" font-size="12" lengthAdjust="spacingAndGlyphs" textLength="109" x="461.35" y="53.6543">TrackerResponse</text><line style="stroke: #A80036; stroke-width: 1.5;" x1="429.5" x2="575.5" y1="65.5" y2="65.5"/><text fill="#000000" font-family="sans-serif" font-size="11" lengthAdjust="spacingAndGlyphs" textLength="136" x="434.5" y="79.7104">Float BatteryPercentage</text><line style="stroke: #A80036; stroke-width: 1.5;" x1="429.5" x2="575.5" y1="86.3047" y2="86.3047"/><!--MD5=[e8f59f8f3251bf3d432a9f687c7f41d6]
class TrackingInformationResponse--><rect fill="#FEFECE" filter="url(#f1vgth1dtbhe7a)" height="48" id="TrackingInformationResponse" style="stroke: #A80036; stroke-width: 1.5;" width="218" x="393.5" y="216"/><ellipse cx="408.5" cy="232" fill="#ADD1B2" rx="11" ry="11" style="stroke: #A80036; stroke-width: 1.0;"/><path d="M411.4688,237.6406 Q410.8906,237.9375 410.25,238.0859 Q409.6094,238.2344 408.9063,238.2344 Q406.4063,238.2344 405.0859,236.5859 Q403.7656,234.9375 403.7656,231.8125 Q403.7656,228.6875 405.0859,227.0313 Q406.4063,225.375 408.9063,225.375 Q409.6094,225.375 410.2578,225.5313 Q410.9063,225.6875 411.4688,225.9844 L411.4688,228.7031 Q410.8438,228.125 410.25,227.8516 Q409.6563,227.5781 409.0313,227.5781 Q407.6875,227.5781 407,228.6484 Q406.3125,229.7188 406.3125,231.8125 Q406.3125,233.9063 407,234.9766 Q407.6875,236.0469 409.0313,236.0469 Q409.6563,236.0469 410.25,235.7734 Q410.8438,235.5 411.4688,234.9219 L411.4688,237.6406 Z "/><text fill="#000000" font-family="sans-serif" font-size="12" lengthAdjust="spacingAndGlyphs" textLength="186" x="422.5" y="236.1543">TrackingInformationResponse</text><line style="stroke: #A80036; stroke-width: 1.5;" x1="394.5" x2="610.5" y1="248" y2="248"/><line style="stroke: #A80036; stroke-width: 1.5;" x1="394.5" x2="610.5" y1="256" y2="256"/><!--MD5=[b25bbcd64bdd811ded8b77e4e8328db5]
class ScanResult--><rect fill="#FEFECE" filter="url(#f1vgth1dtbhe7a)" height="86.4141" id="ScanResult" style="stroke: #A80036; stroke-width: 1.5;" width="102" x="451.5" y="357"/><ellipse cx="466.5" cy="373" fill="#ADD1B2" rx="11" ry="11" style="stroke: #A80036; stroke-width: 1.0;"/><path d="M469.4688,378.6406 Q468.8906,378.9375 468.25,379.0859 Q467.6094,379.2344 466.9063,379.2344 Q464.4063,379.2344 463.0859,377.5859 Q461.7656,375.9375 461.7656,372.8125 Q461.7656,369.6875 463.0859,368.0313 Q464.4063,366.375 466.9063,366.375 Q467.6094,366.375 468.2578,366.5313 Q468.9063,366.6875 469.4688,366.9844 L469.4688,369.7031 Q468.8438,369.125 468.25,368.8516 Q467.6563,368.5781 467.0313,368.5781 Q465.6875,368.5781 465,369.6484 Q464.3125,370.7188 464.3125,372.8125 Q464.3125,374.9063 465,375.9766 Q465.6875,377.0469 467.0313,377.0469 Q467.6563,377.0469 468.25,376.7734 Q468.8438,376.5 469.4688,375.9219 L469.4688,378.6406 Z "/><text fill="#000000" font-family="sans-serif" font-size="12" lengthAdjust="spacingAndGlyphs" textLength="70" x="480.5" y="377.1543">ScanResult</text><line style="stroke: #A80036; stroke-width: 1.5;" x1="452.5" x2="552.5" y1="389" y2="389"/><text fill="#000000" font-family="sans-serif" font-size="11" lengthAdjust="spacingAndGlyphs" textLength="65" x="457.5" y="403.2104">String SSID</text><text fill="#000000" font-family="sans-serif" font-size="11" lengthAdjust="spacingAndGlyphs" textLength="53" x="457.5" y="416.0151">Int BSSID</text><text fill="#000000" font-family="sans-serif" font-size="11" lengthAdjust="spacingAndGlyphs" textLength="52" x="457.5" y="428.8198">Int RSSID</text><line style="stroke: #A80036; stroke-width: 1.5;" x1="452.5" x2="552.5" y1="435.4141" y2="435.4141"/><!--MD5=[d70279aee16cb60954d73d22597b95b5]
class ErrorResponse--><rect fill="#FEFECE" filter="url(#f1vgth1dtbhe7a)" height="60.8047" id="ErrorResponse" style="stroke: #A80036; stroke-width: 1.5;" width="125" x="612" y="33.5"/><ellipse cx="627" cy="49.5" fill="#ADD1B2" rx="11" ry="11" style="stroke: #A80036; stroke-width: 1.0;"/><path d="M629.9688,55.1406 Q629.3906,55.4375 628.75,55.5859 Q628.1094,55.7344 627.4063,55.7344 Q624.9063,55.7344 623.5859,54.0859 Q622.2656,52.4375 622.2656,49.3125 Q622.2656,46.1875 623.5859,44.5313 Q624.9063,42.875 627.4063,42.875 Q628.1094,42.875 628.7578,43.0313 Q629.4063,43.1875 629.9688,43.4844 L629.9688,46.2031 Q629.3438,45.625 628.75,45.3516 Q628.1563,45.0781 627.5313,45.0781 Q626.1875,45.0781 625.5,46.1484 Q624.8125,47.2188 624.8125,49.3125 Q624.8125,51.4063 625.5,52.4766 Q626.1875,53.5469 627.5313,53.5469 Q628.1563,53.5469 628.75,53.2734 Q629.3438,53 629.9688,52.4219 L629.9688,55.1406 Z "/><text fill="#000000" font-family="sans-serif" font-size="12" lengthAdjust="spacingAndGlyphs" textLength="93" x="641" y="53.6543">ErrorResponse</text><line style="stroke: #A80036; stroke-width: 1.5;" x1="613" x2="736" y1="65.5" y2="65.5"/><text fill="#000000" font-family="sans-serif" font-size="11" lengthAdjust="spacingAndGlyphs" textLength="67" x="618" y="79.7104">String Error</text><line style="stroke: #A80036; stroke-width: 1.5;" x1="613" x2="736" y1="86.3047" y2="86.3047"/><!--MD5=[37a8fa77bc8482f8c1d19019d53a6db0]
link Tracker to Room--><path d="M135.456,120.003 C129.017,129.579 123.055,139.763 118.5,150 C111.129,166.563 106.748,186.205 104.1586,202.818 " fill="none" id="Tracker-Room" style="stroke: #A80036; stroke-width: 1.0;"/><text fill="#000000" font-family="sans-serif" font-size="13" lengthAdjust="spacingAndGlyphs" textLength="88" x="119.5" y="163.0669">LastLocations</text><text fill="#000000" font-family="sans-serif" font-size="13" lengthAdjust="spacingAndGlyphs" textLength="23" x="105.0832" y="140.2132">0..*</text><text fill="#000000" font-family="sans-serif" font-size="13" lengthAdjust="spacingAndGlyphs" textLength="23" x="79.7619" y="191.9725">0..*</text><!--MD5=[514d8bc3bab5b01ddee051b7d234711c]
link Tracker to Command--><path d="M209.977,120.055 C222.851,144.946 237.821,173.888 249.771,196.99 " fill="none" id="Tracker-Command" style="stroke: #A80036; stroke-width: 1.0;"/><text fill="#000000" font-family="sans-serif" font-size="13" lengthAdjust="spacingAndGlyphs" textLength="104" x="233.5" y="163.0669">NextCommands</text><text fill="#000000" font-family="sans-serif" font-size="13" lengthAdjust="spacingAndGlyphs" textLength="8" x="205.1131" y="140.2719">1</text><text fill="#000000" font-family="sans-serif" font-size="13" lengthAdjust="spacingAndGlyphs" textLength="23" x="221.4751" y="185.9845">0..*</text><!--MD5=[f66783589ebc018c9de3bc90dc758863]
link Command to CommandType--><path d="M274.18,283.341 C275.707,307.473 277.606,337.469 279.086,360.8659 " fill="none" id="Command-CommandType" style="stroke: #A80036; stroke-width: 1.0;"/><!--MD5=[f3f59008c1811a4e757a926ecda107b3]
link Room to BSSIDTrackingData--><path d="M96.141,277.248 C93.7745,296.928 90.799,321.672 88.1494,343.705 " fill="none" id="Room-BSSIDTrackingData" style="stroke: #A80036; stroke-width: 1.0;"/><text fill="#000000" font-family="sans-serif" font-size="13" lengthAdjust="spacingAndGlyphs" textLength="8" x="86.7565" y="296.7696">1</text><text fill="#000000" font-family="sans-serif" font-size="13" lengthAdjust="spacingAndGlyphs" textLength="23" x="64.5582" y="333.0035">0..*</text><!--MD5=[d790a0a42f3c3a2c42cd651ef96d4874]
reverse link TrackerResponse to TrackingInformationResponse--><path d="M502.5,114.782 C502.5,147.976 502.5,190.078 502.5,215.755 " fill="none" id="TrackerResponse&lt;-TrackingInformationResponse" style="stroke: #A80036; stroke-width: 1.0;"/><polygon fill="none" points="495.5,114.517,502.5,94.517,509.5,114.517,495.5,114.517" style="stroke: #A80036; stroke-width: 1.0;"/><!--MD5=[b0eefe6cb417a80ee1478c9014aa7d10]
link TrackingInformationResponse to ScanResult--><path d="M502.5,264.313 C502.5,288.606 502.5,327.193 502.5,356.8502 " fill="none" id="TrackingInformationResponse-ScanResult" style="stroke: #A80036; stroke-width: 1.0;"/><text fill="#000000" font-family="sans-serif" font-size="13" lengthAdjust="spacingAndGlyphs" textLength="8" x="493.525" y="284.1505">1</text><text fill="#000000" font-family="sans-serif" font-size="13" lengthAdjust="spacingAndGlyphs" textLength="23" x="477.6672" y="345.8221">0..*</text><!--MD5=[50df36e8403791ca90efc0141cbb264d]
@startuml
class Tracker {
	Int ID
	String Label
	Room GetCurrentLocation()
    Time LastPoll
    Time LastSleepTime
}

class Room {
	Int ID
    String Label
}

class Command {
	Int ID
    Int SleepTimeSec [transient]
    Time CreatedAt
}

enum CommandType {
	SendTrackingInformation = 0
    SignalLocation = 1
    Sleep = 2
}
hide CommandType methods

class BSSIDTrackingData {
    Int BSSID
	Int Minimum
    Int Maximum
    Int Median
    Float Average
}

class TrackerResponse {
	Float BatteryPercentage
}

class TrackingInformationResponse {
}

class ScanResult {
	String SSID
    Int BSSID
    Int RSSID
}

class ErrorResponse {
	String Error
}

Tracker "0..*" - - "0..*" Room : LastLocations
Tracker "1" - - "0..*" Command : NextCommands

Command - - CommandType


Room "1" - - "0..*" BSSIDTrackingData

TrackerResponse <|- - TrackingInformationResponse
TrackingInformationResponse "1" - - "0..*" ScanResult
@enduml

PlantUML version 1.2019.12(Sun Nov 03 10:24:54 UTC 2019)
(GPL source distribution)
Java Runtime: OpenJDK Runtime Environment
JVM: OpenJDK 64-Bit Server VM
Java Version: 1.8.0_232-b09
Operating System: Linux
Default Encoding: UTF-8
Language: en
Country: null
--></g></svg>