<?xml version="1.0" encoding="UTF-8" standalone="no"?><svg xmlns="http://www.w3.org/2000/svg" xmlns:xlink="http://www.w3.org/1999/xlink" contentScriptType="application/ecmascript" contentStyleType="text/css" height="816px" preserveAspectRatio="none" style="width:895px;height:816px;" version="1.1" viewBox="0 0 895 816" width="895px" zoomAndPan="magnify"><defs><filter height="300%" id="fajamgpawki8c" width="300%" x="-1" y="-1"><feGaussianBlur result="blurOut" stdDeviation="2.0"/><feColorMatrix in="blurOut" result="blurOut2" type="matrix" values="0 0 0 0 0 0 0 0 0 0 0 0 0 0 0 0 0 0 .4 0"/><feOffset dx="4.0" dy="4.0" in="blurOut2" result="blurOut3"/><feBlend in="SourceGraphic" in2="blurOut3" mode="normal"/></filter></defs><g><!--MD5=[5d4cd377749310b66bf14896f5cd8d9b]
cluster model--><polygon fill="#FFFFFF" filter="url(#fajamgpawki8c)" points="22,24.5,76,24.5,83,46.7969,873,46.7969,873,804,22,804,22,24.5" style="stroke: #000000; stroke-width: 1.5;"/><line style="stroke: #000000; stroke-width: 1.5;" x1="22" x2="83" y1="46.7969" y2="46.7969"/><text fill="#000000" font-family="sans-serif" font-size="14" font-weight="bold" lengthAdjust="spacingAndGlyphs" textLength="48" x="26" y="39.4951">model</text><!--MD5=[8852d4979f829c20a89b8fe64f20c857]
cluster communication--><polygon fill="#FFFFFF" filter="url(#fajamgpawki8c)" points="493,67.5,618,67.5,625,89.7969,849,89.7969,849,591,493,591,493,67.5" style="stroke: #000000; stroke-width: 1.5;"/><line style="stroke: #000000; stroke-width: 1.5;" x1="493" x2="625" y1="89.7969" y2="89.7969"/><text fill="#000000" font-family="sans-serif" font-size="14" font-weight="bold" lengthAdjust="spacingAndGlyphs" textLength="119" x="497" y="82.4951">communication</text><!--MD5=[b3ff875478fad275bd5f47ddbdd021c2]
class Tracker--><rect fill="#FEFECE" filter="url(#fajamgpawki8c)" height="99.2188" id="Tracker" style="stroke: #A80036; stroke-width: 1.5;" width="193" x="217.5" y="273"/><ellipse cx="286.25" cy="289" fill="#ADD1B2" rx="11" ry="11" style="stroke: #A80036; stroke-width: 1.0;"/><path d="M289.2188,294.6406 Q288.6406,294.9375 288,295.0859 Q287.3594,295.2344 286.6563,295.2344 Q284.1563,295.2344 282.8359,293.5859 Q281.5156,291.9375 281.5156,288.8125 Q281.5156,285.6875 282.8359,284.0313 Q284.1563,282.375 286.6563,282.375 Q287.3594,282.375 288.0078,282.5313 Q288.6563,282.6875 289.2188,282.9844 L289.2188,285.7031 Q288.5938,285.125 288,284.8516 Q287.4063,284.5781 286.7813,284.5781 Q285.4375,284.5781 284.75,285.6484 Q284.0625,286.7188 284.0625,288.8125 Q284.0625,290.9063 284.75,291.9766 Q285.4375,293.0469 286.7813,293.0469 Q287.4063,293.0469 288,292.7734 Q288.5938,292.5 289.2188,291.9219 L289.2188,294.6406 Z "/><text fill="#000000" font-family="sans-serif" font-size="12" lengthAdjust="spacingAndGlyphs" textLength="47" x="306.75" y="293.1543">Tracker</text><line style="stroke: #A80036; stroke-width: 1.5;" x1="218.5" x2="409.5" y1="305" y2="305"/><text fill="#000000" font-family="sans-serif" font-size="11" lengthAdjust="spacingAndGlyphs" textLength="51" x="223.5" y="319.2104">UInt16 ID</text><text fill="#000000" font-family="sans-serif" font-size="11" lengthAdjust="spacingAndGlyphs" textLength="68" x="223.5" y="332.0151">String Label</text><text fill="#000000" font-family="sans-serif" font-size="11" lengthAdjust="spacingAndGlyphs" textLength="141" x="223.5" y="344.8198">Time LastPoll &lt;no cbor&gt;</text><text fill="#000000" font-family="sans-serif" font-size="11" lengthAdjust="spacingAndGlyphs" textLength="181" x="223.5" y="357.6245">Time LastSleepTime &lt;no cbor&gt;</text><line style="stroke: #A80036; stroke-width: 1.5;" x1="218.5" x2="409.5" y1="364.2188" y2="364.2188"/><!--MD5=[46cf5e44101693e1de434cc3ca8a61a3]
class TrackerStatus--><rect fill="#FEFECE" filter="url(#fajamgpawki8c)" height="78.4141" id="TrackerStatus" style="stroke: #A80036; stroke-width: 1.5;" width="120" x="254" y="94"/><ellipse cx="269" cy="110" fill="#EB937F" rx="11" ry="11" style="stroke: #A80036; stroke-width: 1.0;"/><path d="M273.1094,116 L265.3906,116 L265.3906,103.6094 L273.1094,103.6094 L273.1094,105.7656 L267.8438,105.7656 L267.8438,108.4375 L272.6094,108.4375 L272.6094,110.5938 L267.8438,110.5938 L267.8438,113.8438 L273.1094,113.8438 L273.1094,116 Z "/><text fill="#000000" font-family="sans-serif" font-size="12" lengthAdjust="spacingAndGlyphs" textLength="88" x="283" y="114.1543">TrackerStatus</text><line style="stroke: #A80036; stroke-width: 1.5;" x1="255" x2="373" y1="126" y2="126"/><text fill="#000000" font-family="sans-serif" font-size="11" lengthAdjust="spacingAndGlyphs" textLength="44" x="260" y="140.2104">Idle = 1</text><text fill="#000000" font-family="sans-serif" font-size="11" lengthAdjust="spacingAndGlyphs" textLength="73" x="260" y="153.0151">Learning = 2</text><text fill="#000000" font-family="sans-serif" font-size="11" lengthAdjust="spacingAndGlyphs" textLength="72" x="260" y="165.8198">Tracking = 3</text><!--MD5=[521817ab83e81da341a3f4b5e91bae41]
class Command--><rect fill="#FEFECE" filter="url(#fajamgpawki8c)" height="86.4141" id="Command" style="stroke: #A80036; stroke-width: 1.5;" width="133" x="44.5" y="489"/><ellipse cx="77.05" cy="505" fill="#ADD1B2" rx="11" ry="11" style="stroke: #A80036; stroke-width: 1.0;"/><path d="M80.0188,510.6406 Q79.4406,510.9375 78.8,511.0859 Q78.1594,511.2344 77.4563,511.2344 Q74.9563,511.2344 73.6359,509.5859 Q72.3156,507.9375 72.3156,504.8125 Q72.3156,501.6875 73.6359,500.0313 Q74.9563,498.375 77.4563,498.375 Q78.1594,498.375 78.8078,498.5313 Q79.4563,498.6875 80.0188,498.9844 L80.0188,501.7031 Q79.3938,501.125 78.8,500.8516 Q78.2063,500.5781 77.5813,500.5781 Q76.2375,500.5781 75.55,501.6484 Q74.8625,502.7188 74.8625,504.8125 Q74.8625,506.9063 75.55,507.9766 Q76.2375,509.0469 77.5813,509.0469 Q78.2063,509.0469 78.8,508.7734 Q79.3938,508.5 80.0188,507.9219 L80.0188,510.6406 Z "/><text fill="#000000" font-family="sans-serif" font-size="12" lengthAdjust="spacingAndGlyphs" textLength="62" x="94.95" y="509.1543">Command</text><line style="stroke: #A80036; stroke-width: 1.5;" x1="45.5" x2="176.5" y1="521" y2="521"/><text fill="#000000" font-family="sans-serif" font-size="11" lengthAdjust="spacingAndGlyphs" textLength="51" x="50.5" y="535.2104">UInt16 ID</text><text fill="#000000" font-family="sans-serif" font-size="11" lengthAdjust="spacingAndGlyphs" textLength="121" x="50.5" y="548.0151">UInt16 SleepTimeSec</text><text fill="#000000" font-family="sans-serif" font-size="11" lengthAdjust="spacingAndGlyphs" textLength="88" x="50.5" y="560.8198">Time CreatedAt</text><line style="stroke: #A80036; stroke-width: 1.5;" x1="45.5" x2="176.5" y1="567.4141" y2="567.4141"/><!--MD5=[64ad5f0319badfc6629542683b018b66]
class CommandType--><rect fill="#FEFECE" filter="url(#fajamgpawki8c)" height="78.4141" id="CommandType" style="stroke: #A80036; stroke-width: 1.5;" width="178" x="38" y="693"/><ellipse cx="77.75" cy="709" fill="#EB937F" rx="11" ry="11" style="stroke: #A80036; stroke-width: 1.0;"/><path d="M81.8594,715 L74.1406,715 L74.1406,702.6094 L81.8594,702.6094 L81.8594,704.7656 L76.5938,704.7656 L76.5938,707.4375 L81.3594,707.4375 L81.3594,709.5938 L76.5938,709.5938 L76.5938,712.8438 L81.8594,712.8438 L81.8594,715 Z "/><text fill="#000000" font-family="sans-serif" font-size="12" lengthAdjust="spacingAndGlyphs" textLength="91" x="97.25" y="713.1543">CommandType</text><line style="stroke: #A80036; stroke-width: 1.5;" x1="39" x2="215" y1="725" y2="725"/><text fill="#000000" font-family="sans-serif" font-size="11" lengthAdjust="spacingAndGlyphs" textLength="166" x="44" y="739.2104">SendTrackingInformation = 0</text><text fill="#000000" font-family="sans-serif" font-size="11" lengthAdjust="spacingAndGlyphs" textLength="106" x="44" y="752.0151">SignalLocation = 1</text><text fill="#000000" font-family="sans-serif" font-size="11" lengthAdjust="spacingAndGlyphs" textLength="56" x="44" y="764.8198">Sleep = 2</text><!--MD5=[d218c48b946d362ff1ecd879cabebcad]
class Room--><rect fill="#FEFECE" filter="url(#fajamgpawki8c)" height="73.6094" id="Room" style="stroke: #A80036; stroke-width: 1.5;" width="80" x="328" y="495"/><ellipse cx="348.85" cy="511" fill="#ADD1B2" rx="11" ry="11" style="stroke: #A80036; stroke-width: 1.0;"/><path d="M351.8188,516.6406 Q351.2406,516.9375 350.6,517.0859 Q349.9594,517.2344 349.2563,517.2344 Q346.7563,517.2344 345.4359,515.5859 Q344.1156,513.9375 344.1156,510.8125 Q344.1156,507.6875 345.4359,506.0313 Q346.7563,504.375 349.2563,504.375 Q349.9594,504.375 350.6078,504.5313 Q351.2563,504.6875 351.8188,504.9844 L351.8188,507.7031 Q351.1938,507.125 350.6,506.8516 Q350.0063,506.5781 349.3813,506.5781 Q348.0375,506.5781 347.35,507.6484 Q346.6625,508.7188 346.6625,510.8125 Q346.6625,512.9063 347.35,513.9766 Q348.0375,515.0469 349.3813,515.0469 Q350.0063,515.0469 350.6,514.7734 Q351.1938,514.5 351.8188,513.9219 L351.8188,516.6406 Z "/><text fill="#000000" font-family="sans-serif" font-size="12" lengthAdjust="spacingAndGlyphs" textLength="35" x="364.15" y="515.1543">Room</text><line style="stroke: #A80036; stroke-width: 1.5;" x1="329" x2="407" y1="527" y2="527"/><text fill="#000000" font-family="sans-serif" font-size="11" lengthAdjust="spacingAndGlyphs" textLength="51" x="334" y="541.2104">UInt16 ID</text><text fill="#000000" font-family="sans-serif" font-size="11" lengthAdjust="spacingAndGlyphs" textLength="68" x="334" y="554.0151">String Label</text><line style="stroke: #A80036; stroke-width: 1.5;" x1="329" x2="407" y1="560.6094" y2="560.6094"/><!--MD5=[2b26ef4097a9f8e875c661187036ebae]
class BSSIDTrackingData--><rect fill="#FEFECE" filter="url(#fajamgpawki8c)" height="112.0234" id="BSSIDTrackingData" style="stroke: #A80036; stroke-width: 1.5;" width="151" x="292.5" y="676"/><ellipse cx="307.5" cy="692" fill="#ADD1B2" rx="11" ry="11" style="stroke: #A80036; stroke-width: 1.0;"/><path d="M310.4688,697.6406 Q309.8906,697.9375 309.25,698.0859 Q308.6094,698.2344 307.9063,698.2344 Q305.4063,698.2344 304.0859,696.5859 Q302.7656,694.9375 302.7656,691.8125 Q302.7656,688.6875 304.0859,687.0313 Q305.4063,685.375 307.9063,685.375 Q308.6094,685.375 309.2578,685.5313 Q309.9063,685.6875 310.4688,685.9844 L310.4688,688.7031 Q309.8438,688.125 309.25,687.8516 Q308.6563,687.5781 308.0313,687.5781 Q306.6875,687.5781 306,688.6484 Q305.3125,689.7188 305.3125,691.8125 Q305.3125,693.9063 306,694.9766 Q306.6875,696.0469 308.0313,696.0469 Q308.6563,696.0469 309.25,695.7734 Q309.8438,695.5 310.4688,694.9219 L310.4688,697.6406 Z "/><text fill="#000000" font-family="sans-serif" font-size="12" lengthAdjust="spacingAndGlyphs" textLength="119" x="321.5" y="696.1543">BSSIDTrackingData</text><line style="stroke: #A80036; stroke-width: 1.5;" x1="293.5" x2="442.5" y1="708" y2="708"/><text fill="#000000" font-family="sans-serif" font-size="11" lengthAdjust="spacingAndGlyphs" textLength="73" x="298.5" y="722.2104">String BSSID</text><text fill="#000000" font-family="sans-serif" font-size="11" lengthAdjust="spacingAndGlyphs" textLength="69" x="298.5" y="735.0151">Int Minimum</text><text fill="#000000" font-family="sans-serif" font-size="11" lengthAdjust="spacingAndGlyphs" textLength="72" x="298.5" y="747.8198">Int Maximum</text><text fill="#000000" font-family="sans-serif" font-size="11" lengthAdjust="spacingAndGlyphs" textLength="58" x="298.5" y="760.6245">Int Median</text><text fill="#000000" font-family="sans-serif" font-size="11" lengthAdjust="spacingAndGlyphs" textLength="77" x="298.5" y="773.4292">Float Average</text><line style="stroke: #A80036; stroke-width: 1.5;" x1="293.5" x2="442.5" y1="780.0234" y2="780.0234"/><!--MD5=[a38863164908f1b697b9dfce9b770664]
entity ##1765--><!--MD5=[4630ebd2cd869b539735227e1d6c119c]
entity ##1769--><!--MD5=[38779eaf1f36d42563218d077fa59877]
class TrackerResponse--><rect fill="#FEFECE" filter="url(#fajamgpawki8c)" height="60.8047" id="TrackerResponse" style="stroke: #A80036; stroke-width: 1.5;" width="148" x="685" y="102.5"/><ellipse cx="703.15" cy="118.5" fill="#ADD1B2" rx="11" ry="11" style="stroke: #A80036; stroke-width: 1.0;"/><path d="M706.1188,124.1406 Q705.5406,124.4375 704.9,124.5859 Q704.2594,124.7344 703.5563,124.7344 Q701.0563,124.7344 699.7359,123.0859 Q698.4156,121.4375 698.4156,118.3125 Q698.4156,115.1875 699.7359,113.5313 Q701.0563,111.875 703.5563,111.875 Q704.2594,111.875 704.9078,112.0313 Q705.5563,112.1875 706.1188,112.4844 L706.1188,115.2031 Q705.4938,114.625 704.9,114.3516 Q704.3063,114.0781 703.6813,114.0781 Q702.3375,114.0781 701.65,115.1484 Q700.9625,116.2188 700.9625,118.3125 Q700.9625,120.4063 701.65,121.4766 Q702.3375,122.5469 703.6813,122.5469 Q704.3063,122.5469 704.9,122.2734 Q705.4938,122 706.1188,121.4219 L706.1188,124.1406 Z "/><text fill="#000000" font-family="sans-serif" font-size="12" lengthAdjust="spacingAndGlyphs" textLength="109" x="717.85" y="122.6543">TrackerResponse</text><line style="stroke: #A80036; stroke-width: 1.5;" x1="686" x2="832" y1="134.5" y2="134.5"/><text fill="#000000" font-family="sans-serif" font-size="11" lengthAdjust="spacingAndGlyphs" textLength="136" x="691" y="148.7104">Float BatteryPercentage</text><line style="stroke: #A80036; stroke-width: 1.5;" x1="686" x2="832" y1="155.3047" y2="155.3047"/><!--MD5=[e8f59f8f3251bf3d432a9f687c7f41d6]
class TrackingInformationResponse--><rect fill="#FEFECE" filter="url(#fajamgpawki8c)" height="48" id="TrackingInformationResponse" style="stroke: #A80036; stroke-width: 1.5;" width="218" x="544" y="298.5"/><ellipse cx="559" cy="314.5" fill="#ADD1B2" rx="11" ry="11" style="stroke: #A80036; stroke-width: 1.0;"/><path d="M561.9688,320.1406 Q561.3906,320.4375 560.75,320.5859 Q560.1094,320.7344 559.4063,320.7344 Q556.9063,320.7344 555.5859,319.0859 Q554.2656,317.4375 554.2656,314.3125 Q554.2656,311.1875 555.5859,309.5313 Q556.9063,307.875 559.4063,307.875 Q560.1094,307.875 560.7578,308.0313 Q561.4063,308.1875 561.9688,308.4844 L561.9688,311.2031 Q561.3438,310.625 560.75,310.3516 Q560.1563,310.0781 559.5313,310.0781 Q558.1875,310.0781 557.5,311.1484 Q556.8125,312.2188 556.8125,314.3125 Q556.8125,316.4063 557.5,317.4766 Q558.1875,318.5469 559.5313,318.5469 Q560.1563,318.5469 560.75,318.2734 Q561.3438,318 561.9688,317.4219 L561.9688,320.1406 Z "/><text fill="#000000" font-family="sans-serif" font-size="12" lengthAdjust="spacingAndGlyphs" textLength="186" x="573" y="318.6543">TrackingInformationResponse</text><line style="stroke: #A80036; stroke-width: 1.5;" x1="545" x2="761" y1="330.5" y2="330.5"/><line style="stroke: #A80036; stroke-width: 1.5;" x1="545" x2="761" y1="338.5" y2="338.5"/><!--MD5=[b25bbcd64bdd811ded8b77e4e8328db5]
class ScanResult--><rect fill="#FEFECE" filter="url(#fajamgpawki8c)" height="86.4141" id="ScanResult" style="stroke: #A80036; stroke-width: 1.5;" width="102" x="532" y="489"/><ellipse cx="547" cy="505" fill="#ADD1B2" rx="11" ry="11" style="stroke: #A80036; stroke-width: 1.0;"/><path d="M549.9688,510.6406 Q549.3906,510.9375 548.75,511.0859 Q548.1094,511.2344 547.4063,511.2344 Q544.9063,511.2344 543.5859,509.5859 Q542.2656,507.9375 542.2656,504.8125 Q542.2656,501.6875 543.5859,500.0313 Q544.9063,498.375 547.4063,498.375 Q548.1094,498.375 548.7578,498.5313 Q549.4063,498.6875 549.9688,498.9844 L549.9688,501.7031 Q549.3438,501.125 548.75,500.8516 Q548.1563,500.5781 547.5313,500.5781 Q546.1875,500.5781 545.5,501.6484 Q544.8125,502.7188 544.8125,504.8125 Q544.8125,506.9063 545.5,507.9766 Q546.1875,509.0469 547.5313,509.0469 Q548.1563,509.0469 548.75,508.7734 Q549.3438,508.5 549.9688,507.9219 L549.9688,510.6406 Z "/><text fill="#000000" font-family="sans-serif" font-size="12" lengthAdjust="spacingAndGlyphs" textLength="70" x="561" y="509.1543">ScanResult</text><line style="stroke: #A80036; stroke-width: 1.5;" x1="533" x2="633" y1="521" y2="521"/><text fill="#000000" font-family="sans-serif" font-size="11" lengthAdjust="spacingAndGlyphs" textLength="65" x="538" y="535.2104">String SSID</text><text fill="#000000" font-family="sans-serif" font-size="11" lengthAdjust="spacingAndGlyphs" textLength="73" x="538" y="548.0151">String BSSID</text><text fill="#000000" font-family="sans-serif" font-size="11" lengthAdjust="spacingAndGlyphs" textLength="66" x="538" y="560.8198">Int32 RSSID</text><line style="stroke: #A80036; stroke-width: 1.5;" x1="533" x2="633" y1="567.4141" y2="567.4141"/><!--MD5=[d70279aee16cb60954d73d22597b95b5]
class ErrorResponse--><rect fill="#FEFECE" filter="url(#fajamgpawki8c)" height="60.8047" id="ErrorResponse" style="stroke: #A80036; stroke-width: 1.5;" width="125" x="509.5" y="102.5"/><ellipse cx="524.5" cy="118.5" fill="#ADD1B2" rx="11" ry="11" style="stroke: #A80036; stroke-width: 1.0;"/><path d="M527.4688,124.1406 Q526.8906,124.4375 526.25,124.5859 Q525.6094,124.7344 524.9063,124.7344 Q522.4063,124.7344 521.0859,123.0859 Q519.7656,121.4375 519.7656,118.3125 Q519.7656,115.1875 521.0859,113.5313 Q522.4063,111.875 524.9063,111.875 Q525.6094,111.875 526.2578,112.0313 Q526.9063,112.1875 527.4688,112.4844 L527.4688,115.2031 Q526.8438,114.625 526.25,114.3516 Q525.6563,114.0781 525.0313,114.0781 Q523.6875,114.0781 523,115.1484 Q522.3125,116.2188 522.3125,118.3125 Q522.3125,120.4063 523,121.4766 Q523.6875,122.5469 525.0313,122.5469 Q525.6563,122.5469 526.25,122.2734 Q526.8438,122 527.4688,121.4219 L527.4688,124.1406 Z "/><text fill="#000000" font-family="sans-serif" font-size="12" lengthAdjust="spacingAndGlyphs" textLength="93" x="538.5" y="122.6543">ErrorResponse</text><line style="stroke: #A80036; stroke-width: 1.5;" x1="510.5" x2="633.5" y1="134.5" y2="134.5"/><text fill="#000000" font-family="sans-serif" font-size="11" lengthAdjust="spacingAndGlyphs" textLength="67" x="515.5" y="148.7104">String Error</text><line style="stroke: #A80036; stroke-width: 1.5;" x1="510.5" x2="633.5" y1="155.3047" y2="155.3047"/><!--MD5=[87c392ebf44f4fbabc35b16f70eede5b]
link TrackerStatus to Tracker--><path d="M314,172.396 C314,201.431 314,241.502 314,272.792 " fill="none" id="TrackerStatus-Tracker" style="stroke: #A80036; stroke-width: 1.0;"/><!--MD5=[37a8fa77bc8482f8c1d19019d53a6db0]
link Tracker to Room--><path d="M257.811,372.144 C241.348,392.36 230.495,416.354 242,439 C259.85,474.135 298.112,499.051 327.817,514.013 " fill="none" id="Tracker-Room" style="stroke: #A80036; stroke-width: 1.0;"/><text fill="#000000" font-family="sans-serif" font-size="13" lengthAdjust="spacingAndGlyphs" textLength="88" x="243" y="435.0669">LastLocations</text><text fill="#000000" font-family="sans-serif" font-size="13" lengthAdjust="spacingAndGlyphs" textLength="23" x="225.2922" y="392.2407">0..*</text><text fill="#000000" font-family="sans-serif" font-size="13" lengthAdjust="spacingAndGlyphs" textLength="23" x="296.903" y="507.2173">0..*</text><!--MD5=[37a8fa77bc8482f8c1d19019d53a6db0]
link Tracker to Room--><path d="M326.892,372.081 C331.094,387.984 335.766,405.74 340,422 C346.302,446.201 353.302,473.451 358.727,494.651 " fill="none" id="Tracker-Room-1" style="stroke: #A80036; stroke-width: 1.0;"/><text fill="#000000" font-family="sans-serif" font-size="13" lengthAdjust="spacingAndGlyphs" textLength="81" x="345" y="435.0669">LastLocation</text><text fill="#000000" font-family="sans-serif" font-size="13" lengthAdjust="spacingAndGlyphs" textLength="23" x="304.0877" y="392.1689">0..*</text><text fill="#000000" font-family="sans-serif" font-size="13" lengthAdjust="spacingAndGlyphs" textLength="8" x="348.4457" y="484.0545">1</text><!--MD5=[514d8bc3bab5b01ddee051b7d234711c]
link Tracker to Command--><path d="M217.266,350.248 C180.837,365.318 142.754,388.14 120,422 C107.026,441.306 104.4081,467.094 105.2055,488.74 " fill="none" id="Tracker-Command" style="stroke: #A80036; stroke-width: 1.0;"/><text fill="#000000" font-family="sans-serif" font-size="13" lengthAdjust="spacingAndGlyphs" textLength="104" x="121" y="435.0669">NextCommands</text><text fill="#000000" font-family="sans-serif" font-size="13" lengthAdjust="spacingAndGlyphs" textLength="8" x="201.5536" y="348.8618">1</text><text fill="#000000" font-family="sans-serif" font-size="13" lengthAdjust="spacingAndGlyphs" textLength="23" x="79.5573" y="478.0127">0..*</text><!--MD5=[648bbffdbdc834d6205651271a5cb82d]
link Tracker to ScanResult--><path d="M377.069,372.15 C424.121,408.445 487.605,457.414 531.593,491.346 " fill="none" id="Tracker-ScanResult" style="stroke: #A80036; stroke-width: 1.0;"/><text fill="#000000" font-family="sans-serif" font-size="13" lengthAdjust="spacingAndGlyphs" textLength="8" x="377.3756" y="392.2476">1</text><text fill="#000000" font-family="sans-serif" font-size="13" lengthAdjust="spacingAndGlyphs" textLength="23" x="500.9262" y="482.527">0..*</text><!--MD5=[f66783589ebc018c9de3bc90dc758863]
link Command to CommandType--><path d="M114.432,575.476 C117.251,610.361 121.208,659.327 123.925,692.945 " fill="none" id="Command-CommandType" style="stroke: #A80036; stroke-width: 1.0;"/><!--MD5=[f3f59008c1811a4e757a926ecda107b3]
link Room to BSSIDTrackingData--><path d="M368,569.316 C368,599.125 368,641.813 368,675.842 " fill="none" id="Room-BSSIDTrackingData" style="stroke: #A80036; stroke-width: 1.0;"/><text fill="#000000" font-family="sans-serif" font-size="13" lengthAdjust="spacingAndGlyphs" textLength="8" x="359.3625" y="588.5672">1</text><text fill="#000000" font-family="sans-serif" font-size="13" lengthAdjust="spacingAndGlyphs" textLength="23" x="343.5266" y="664.7597">0..*</text><!--MD5=[d790a0a42f3c3a2c42cd651ef96d4874]
reverse link TrackerResponse to TrackingInformationResponse--><path d="M738.322,182.39 C732.179,195.751 725.166,210.114 718,223 C703.164,249.68 683.578,278.671 669.798,298.244 " fill="none" id="TrackerResponse&lt;-TrackingInformationResponse" style="stroke: #A80036; stroke-width: 1.0;"/><polygon fill="none" points="732.068,179.226,746.615,163.818,744.852,184.934,732.068,179.226" style="stroke: #A80036; stroke-width: 1.0;"/><!--MD5=[b0eefe6cb417a80ee1478c9014aa7d10]
link TrackingInformationResponse to ScanResult--><path d="M648.381,346.855 C643.429,370.433 634.801,407.734 624,439 C618.29,455.528 610.785,473.182 603.759,488.56 " fill="none" id="TrackingInformationResponse-ScanResult" style="stroke: #A80036; stroke-width: 1.0;"/><text fill="#000000" font-family="sans-serif" font-size="13" lengthAdjust="spacingAndGlyphs" textLength="8" x="638.2801" y="366.7027">1</text><text fill="#000000" font-family="sans-serif" font-size="13" lengthAdjust="spacingAndGlyphs" textLength="23" x="582.1768" y="477.8052">0..*</text><!--MD5=[35af0d82ee838ceed7c9e65f44775b39]
@startuml
skinparam nodesep 50
skinparam ranksep 100

package model {
  class Tracker {
    UInt16 ID
    String Label
    Time LastPoll <no cbor>
    Time LastSleepTime <no cbor>
  }
  
  enum TrackerStatus {
    Idle = 1
    Learning = 2
    Tracking = 3
  }
  hide TrackerStatus methods
  
  class Command {
    UInt16 ID
    UInt16 SleepTimeSec
    Time CreatedAt
  }

  enum CommandType {
    SendTrackingInformation = 0
    SignalLocation = 1
    Sleep = 2
  }
  
  hide CommandType methods
  together {
    class Command
    enum CommandType
  }

  class Room {
    UInt16 ID
    String Label
  }
  
  class BSSIDTrackingData {
    String BSSID
    Int Minimum
    Int Maximum
    Int Median
    Float Average
  }
  together {
    class Room
    class BSSIDTrackingData
  }

  package communication {
    class TrackerResponse {
      Float BatteryPercentage
    }

    class TrackingInformationResponse {
    }

    class ScanResult {
      String SSID
      String BSSID
      Int32 RSSID
    }

    class ErrorResponse {
      String Error
    }
  }

  Tracker -up- TrackerStatus
  Tracker "0..*" - - "0..*" Room : LastLocations
  Tracker "0..*" - - "1" Room : LastLocation
  Tracker "1" - - "0..*" Command : NextCommands
  Tracker "1" - - "0..*" ScanResult

  Command - - CommandType

  Room "1" - - "0..*" BSSIDTrackingData

  TrackerResponse <|- - TrackingInformationResponse
  TrackingInformationResponse "1" - - "0..*" ScanResult
}
@enduml

PlantUML version 1.2019.12(Sun Nov 03 10:24:54 UTC 2019)
(GPL source distribution)
Java Runtime: OpenJDK Runtime Environment
JVM: OpenJDK 64-Bit Server VM
Java Version: 1.8.0_232-b09
Operating System: Linux
Default Encoding: UTF-8
Language: en
Country: null
--></g></svg>